# Created by FreeCAD <https://www.freecad.org>
v 8.211370 0.059859 0.718402
v 8.218606 0.000030 0.719035
v 8.190080 0.116210 0.716539
v 8.151029 0.116210 1.073103
v 8.155973 0.165810 0.713555
v 8.117085 0.165810 1.068635
v 8.111033 0.205776 0.709623
v 8.072360 0.205776 1.062747
v 8.057872 0.233784 0.704973
v 8.019452 0.233784 1.055781
v 7.999577 0.248207 0.699872
v 7.961435 0.248207 1.048143
v 8.234890 0.059859 0.359543
v 8.242147 0.000030 0.359860
v 7.939538 0.248207 0.694620
v 7.901682 0.248207 1.040276
v 8.213539 0.116210 0.358611
v 7.881244 0.233784 0.689519
v 7.843666 0.233784 1.032638
v 8.179336 0.165810 0.357118
v 7.828082 0.205776 0.684869
v 7.790758 0.205776 1.025673
v 8.134267 0.205776 0.355150
v 7.783142 0.165810 0.680937
v 8.080953 0.233784 0.352822
v 7.749036 0.116210 0.677953
v 7.712089 0.116210 1.015316
v 8.022491 0.248207 0.350269
v 7.727746 0.059859 0.676090
v 7.690900 0.059859 1.012526
v 8.242736 0.059859 -0.000000
v 8.250000 0.000030 -0.000000
v 7.962280 0.248207 0.347641
v 7.720509 0.000030 0.675457
v 8.221364 0.116210 -0.000000
v 7.903819 0.233784 0.345088
v 7.727746 -0.059799 0.676090
v 7.690900 -0.059799 1.012526
v 8.187128 0.165810 0.000000
v 7.850505 0.205776 0.342760
v 7.749036 -0.116151 0.677953
v 8.142016 0.205776 0.000000
v 7.805436 0.165810 0.340793
v 7.783142 -0.165751 0.680937
v 7.746032 -0.165751 1.019784
v 8.088652 0.233784 -0.000000
v 7.771233 0.116210 0.339299
v 7.828082 -0.205716 0.684869
v 8.030134 0.248207 -0.000000
v 7.749881 0.059859 0.338367
v 7.881244 -0.233724 0.689519
v 8.234890 0.059859 -0.359543
v 8.242147 0.000030 -0.359860
v 8.218606 0.000030 -0.719035
v 7.969866 0.248207 -0.000000
v 7.742624 0.000030 0.338050
v 7.939538 -0.248148 0.694620
v 8.213539 0.116210 -0.358611
v 7.911349 0.233784 -0.000000
v 7.749881 -0.059799 0.338367
v 7.999577 -0.248148 0.699872
v 8.179336 0.165810 -0.357118
v 7.857984 0.205776 0.000000
v 7.771233 -0.116151 0.339299
v 8.057872 -0.233724 0.704973
v 8.019452 -0.233724 1.055781
v 8.134267 0.205776 -0.355150
v 7.812872 0.165810 0.000000
v 7.805436 -0.165751 0.340793
v 8.111033 -0.205716 0.709623
v 8.072360 -0.205716 1.062747
v 8.080953 0.233784 -0.352822
v 7.778636 0.116210 -0.000000
v 7.850505 -0.205716 0.342760
v 8.155973 -0.165751 0.713555
v 8.022491 0.248207 -0.350269
v 7.757265 0.059859 -0.000000
v 7.903819 -0.233724 0.345088
v 8.190080 -0.116151 0.716539
v 8.211370 0.059859 -0.718402
v 8.179420 0.000030 -1.076841
v 8.172217 0.059859 -1.075893
v 8.151029 0.116210 -1.073103
v 7.962280 0.248207 -0.347641
v 7.750000 0.000030 -0.000000
v 7.962280 -0.248148 0.347641
v 8.211370 -0.059799 0.718402
v 8.190080 0.116210 -0.716539
v 7.903819 0.233784 -0.345088
v 7.757265 -0.059799 -0.000000
v 8.022491 -0.248148 0.350269
v 8.155973 0.165810 -0.713555
v 8.117085 0.165810 -1.068635
v 7.850505 0.205776 -0.342760
v 7.778636 -0.116151 -0.000000
v 8.080953 -0.233724 0.352822
v 8.111033 0.205776 -0.709624
v 8.072360 0.205776 -1.062746
v 8.019452 0.233784 -1.055781
v 7.805436 0.165810 -0.340793
v 7.812872 -0.165751 0.000000
v 8.134267 -0.205716 0.355150
v 8.057872 0.233784 -0.704972
v 7.771233 0.116210 -0.339299
v 7.857984 -0.205716 0.000000
v 8.179336 -0.165751 0.357118
v 7.999577 0.248207 -0.699872
v 7.961435 0.248207 -1.048143
v 7.901682 0.248207 -1.040276
v 7.749881 0.059859 -0.338367
v 7.911349 -0.233724 -0.000000
v 8.213539 -0.116151 0.358611
v 7.939538 0.248207 -0.694620
v 7.843666 0.233784 -1.032638
v 7.742624 0.000030 -0.338050
v 7.969866 -0.248148 -0.000000
v 8.234890 -0.059799 0.359543
v 7.881244 0.233784 -0.689519
v 7.749881 -0.059799 -0.338367
v 8.030134 -0.248148 -0.000000
v 7.828082 0.205776 -0.684868
v 7.790758 0.205776 -1.025673
v 7.771233 -0.116151 -0.339299
v 8.088652 -0.233724 -0.000000
v 7.783142 0.165810 -0.680937
v 7.746032 0.165810 -1.019784
v 7.805436 -0.165751 -0.340793
v 8.142016 -0.205716 0.000000
v 7.749036 0.116210 -0.677953
v 7.712089 0.116210 -1.015316
v 7.850505 -0.205716 -0.342760
v 8.187128 -0.165751 0.000000
v 7.727746 0.059859 -0.676090
v 7.690900 0.059859 -1.012526
v 7.903819 -0.233724 -0.345088
v 8.221364 -0.116151 -0.000000
v 7.720509 0.000030 -0.675457
v 7.683698 0.000030 -1.011578
v 7.690900 -0.059799 -1.012526
v 7.962280 -0.248148 -0.347641
v 8.242736 -0.059799 -0.000000
v 7.727746 -0.059799 -0.676090
v 8.022491 -0.248148 -0.350269
v 7.749036 -0.116151 -0.677953
v 7.712089 -0.116151 -1.015316
v 8.080953 -0.233724 -0.352822
v 7.783142 -0.165751 -0.680937
v 7.746032 -0.165751 -1.019784
v 7.790758 -0.205716 -1.025673
v 8.134267 -0.205716 -0.355150
v 7.828082 -0.205716 -0.684868
v 8.179336 -0.165751 -0.357118
v 7.881244 -0.233724 -0.689519
v 7.843666 -0.233724 -1.032638
v 7.901682 -0.248148 -1.040276
v 8.213539 -0.116151 -0.358611
v 7.939538 -0.248148 -0.694620
v 8.234890 -0.059799 -0.359543
v 7.999577 -0.248148 -0.699872
v 7.961435 -0.248148 -1.048143
v 8.057872 -0.233724 -0.704972
v 8.019452 -0.233724 -1.055781
v 8.111033 -0.205716 -0.709624
v 8.072360 -0.205716 -1.062746
v 8.155973 -0.165751 -0.713555
v 8.117085 -0.165751 -1.068635
v 8.190080 -0.116151 -0.716539
v 8.151029 -0.116151 -1.073103
v 8.211370 -0.059799 -0.718402
v 8.172217 -0.059799 -1.075893
v 7.451345 0.505399 0.980988
v 7.746032 0.165810 1.019784
v 7.373576 0.416273 0.970750
v 7.645695 0.637890 1.006575
v 7.542930 0.579986 0.993046
v 7.311858 0.315172 0.962624
v 7.267968 0.205006 0.956846
v 7.756683 0.677443 1.021187
v 7.243169 0.088942 0.953581
v 7.872703 0.697508 1.036461
v 7.683698 0.000030 1.011578
v 7.238173 -0.029679 0.952923
v 8.106435 0.677443 1.067232
v 7.990415 0.697508 1.051958
v 7.253124 -0.147446 0.954892
v 7.287593 -0.260970 0.959430
v 8.217423 0.637890 1.081844
v 7.712089 -0.116151 1.015316
v 7.340588 -0.366985 0.966407
v 8.320188 0.579986 1.095373
v 7.410583 -0.462443 0.975622
v 8.411773 0.505399 1.107431
v 7.790758 -0.205716 1.025673
v 7.495567 -0.544595 0.986810
v 8.489542 0.416273 1.117669
v 7.593093 -0.611080 0.999650
v 7.843666 -0.233724 1.032638
v 8.551260 0.315172 1.125795
v 7.700356 -0.659985 1.013771
v 8.595150 0.205006 1.131573
v 8.172217 0.059859 1.075893
v 7.814270 -0.689902 1.028768
v 7.901682 -0.248148 1.040276
v 8.619949 0.088942 1.134838
v 8.179420 0.000030 1.076841
v 7.961435 -0.248148 1.048143
v 7.931559 -0.699970 1.044210
v 8.624945 -0.029679 1.135496
v 8.172217 -0.059799 1.075893
v 8.048847 -0.689902 1.059651
v 8.609993 -0.147446 1.133527
v 8.162762 -0.659985 1.074648
v 8.575524 -0.260970 1.128989
v 8.151029 -0.116151 1.073103
v 8.270024 -0.611080 1.088769
v 8.522530 -0.366985 1.122012
v 8.117085 -0.165751 1.068635
v 8.367551 -0.544595 1.101609
v 8.452534 -0.462443 1.112797
v 8.411773 -0.505340 -1.107431
v 8.489542 -0.416214 -1.117669
v 8.217423 -0.637830 -1.081844
v 8.320188 -0.579927 -1.095374
v 8.551260 -0.315113 -1.125795
v 8.595149 -0.204946 -1.131573
v 8.106435 -0.677383 -1.067232
v 8.619949 -0.088883 -1.134838
v 7.990415 -0.697449 -1.051958
v 8.624945 0.029738 -1.135496
v 7.756683 -0.677383 -1.021187
v 7.872703 -0.697449 -1.036461
v 8.609993 0.147505 -1.133527
v 8.575524 0.261029 -1.128989
v 7.645695 -0.637830 -1.006575
v 8.522530 0.367045 -1.122012
v 7.542930 -0.579927 -0.993046
v 8.452534 0.462502 -1.112797
v 7.451345 -0.505340 -0.980988
v 8.367551 0.544655 -1.101609
v 7.373576 -0.416214 -0.970750
v 8.270024 0.611139 -1.088769
v 7.311858 -0.315113 -0.962624
v 8.162762 0.660044 -1.074648
v 7.267968 -0.204946 -0.956846
v 8.048847 0.689961 -1.059651
v 7.243169 -0.088883 -0.953581
v 7.931559 0.700030 -1.044210
v 7.238173 0.029738 -0.952924
v 7.814270 0.689961 -1.028768
v 7.253124 0.147505 -0.954892
v 7.700356 0.660044 -1.013771
v 7.287593 0.261029 -0.959430
v 7.593093 0.611139 -0.999650
v 7.340588 0.367045 -0.966407
v 7.495567 0.544655 -0.986810
v 7.410584 0.462502 -0.975622
v 7.901103 -0.583304 1.275547
v 8.034478 -0.567580 1.293106
v 8.160663 -0.521256 1.309718
v 8.272855 -0.446830 1.324489
v 8.365005 -0.348313 1.336621
v 7.977347 -0.454058 1.520931
v 7.870646 -0.466637 1.506884
v 8.432146 -0.231017 1.345460
v 8.078295 -0.416999 1.534221
v 8.470659 -0.101265 1.350530
v 8.168048 -0.357458 1.546037
v 8.478467 0.033947 1.351558
v 8.241769 -0.278644 1.555743
v 7.920216 -0.340536 1.748756
v 7.840190 -0.349970 1.738221
v 8.455149 0.167331 1.348488
v 8.295482 -0.184808 1.562814
v 7.995926 -0.312742 1.758724
v 8.401962 0.291696 1.341486
v 8.326292 -0.081006 1.566871
v 8.063242 -0.268086 1.767586
v 8.321774 0.400337 1.330929
v 8.332539 0.027164 1.567693
v 8.118532 -0.208976 1.774865
v 7.863084 -0.227014 1.976582
v 7.809734 -0.233304 1.969558
v 8.218907 0.487397 1.317387
v 8.313884 0.133871 1.565237
v 8.158816 -0.138598 1.780169
v 7.913558 -0.208485 1.983227
v 8.098907 0.548184 1.301588
v 8.271335 0.233363 1.559635
v 8.181925 -0.060747 1.783211
v 7.958435 -0.178714 1.989135
v 7.968244 0.579419 1.284386
v 8.207184 0.320276 1.551190
v 8.186609 0.020380 1.783828
v 7.995296 -0.139307 1.993988
v 7.805954 -0.113492 2.204407
v 7.779278 -0.116637 2.200895
v 7.748822 0.000030 2.432232
v 7.833961 0.579419 1.266707
v 8.124890 0.389924 1.540356
v 8.172618 0.100411 1.781986
v 8.022152 -0.092389 1.997523
v 7.831190 -0.104228 2.207730
v 7.703298 0.548184 1.249505
v 8.028891 0.438553 1.527717
v 8.140706 0.175030 1.777784
v 8.037557 -0.040488 1.999551
v 7.853629 -0.089342 2.210684
v 7.583298 0.487397 1.233707
v 7.924360 0.463541 1.513955
v 8.092593 0.240214 1.771450
v 8.040680 0.013597 1.999963
v 7.872059 -0.069639 2.213110
v 7.480432 0.400337 1.220164
v 7.816934 0.463541 1.499812
v 8.030873 0.292450 1.763325
v 8.031353 0.066950 1.998735
v 7.885487 -0.046180 2.214878
v 7.400243 0.291696 1.209607
v 7.712403 0.438553 1.486051
v 7.958873 0.328922 1.753846
v 8.010078 0.116696 1.995934
v 7.893189 -0.020229 2.215892
v 7.347056 0.167331 1.202605
v 7.616403 0.389924 1.473412
v 7.880476 0.347663 1.743525
v 7.978003 0.160153 1.991711
v 7.894751 0.006813 2.216097
v 7.323739 0.033947 1.199535
v 7.534110 0.320276 1.462578
v 7.799906 0.347663 1.732917
v 7.936856 0.194977 1.986294
v 7.890088 0.033490 2.215483
v 7.331546 -0.101265 1.200563
v 7.469959 0.233363 1.454132
v 7.721508 0.328922 1.722596
v 7.888856 0.219291 1.979975
v 7.879450 0.058363 2.214083
v 7.370059 -0.231017 1.205634
v 7.427410 0.133871 1.448531
v 7.649508 0.292450 1.713117
v 7.836591 0.231785 1.973094
v 7.863412 0.080091 2.211972
v 7.437201 -0.348313 1.214473
v 7.408755 0.027164 1.446074
v 7.587788 0.240214 1.704991
v 7.782878 0.231785 1.966022
v 7.842839 0.097503 2.209263
v 7.529351 -0.446830 1.226605
v 7.415001 -0.081006 1.446897
v 7.539675 0.175030 1.698657
v 7.730612 0.219291 1.959141
v 7.818840 0.109660 2.206104
v 7.641543 -0.521256 1.241375
v 7.445812 -0.184808 1.450953
v 7.507763 0.100411 1.694456
v 7.682612 0.194977 1.952822
v 7.792706 0.115907 2.202663
v 7.767728 -0.567580 1.257987
v 7.499525 -0.278644 1.458025
v 7.493772 0.020380 1.692614
v 7.641466 0.160153 1.947405
v 7.765850 0.115907 2.199127
v 7.573246 -0.357458 1.467730
v 7.498456 -0.060747 1.693231
v 7.609391 0.116696 1.943182
v 7.739717 0.109660 2.195687
v 7.662999 -0.416999 1.479546
v 7.521564 -0.138598 1.696273
v 7.588116 0.066950 1.940381
v 7.715717 0.097503 2.192527
v 7.763947 -0.454058 1.492836
v 7.561849 -0.208976 1.701577
v 7.578789 0.013597 1.939154
v 7.695144 0.080091 2.189819
v 7.617139 -0.268086 1.708856
v 7.581912 -0.040488 1.939565
v 7.679106 0.058363 2.187707
v 7.684454 -0.312742 1.717718
v 7.597317 -0.092389 1.941593
v 7.668469 0.033490 2.186307
v 7.760166 -0.340536 1.727685
v 7.624174 -0.139307 1.945129
v 7.663805 0.006813 2.185693
v 7.661034 -0.178714 1.949981
v 7.665367 -0.020229 2.185899
v 7.705911 -0.208485 1.955889
v 7.673069 -0.046180 2.186913
v 7.756384 -0.227014 1.962535
v 7.686498 -0.069639 2.188680
v 7.704928 -0.089342 2.191107
v 7.727366 -0.104228 2.194061
v 7.752604 -0.113492 2.197383
v 7.901103 0.583363 -1.275547
v 7.752604 0.113551 -2.197383
v 7.779278 0.116696 -2.200895
v 7.748822 0.000030 -2.432232
v 7.727366 0.104287 -2.194061
v 7.704928 0.089401 -2.191107
v 7.686498 0.069698 -2.188680
v 7.756384 0.227073 -1.962534
v 7.809734 0.233363 -1.969558
v 7.673069 0.046239 -2.186913
v 7.705911 0.208544 -1.955889
v 7.665367 0.020289 -2.185899
v 7.661034 0.178773 -1.949981
v 7.663805 -0.006754 -2.185693
v 7.624174 0.139367 -1.945129
v 7.760166 0.340595 -1.727685
v 7.840190 0.350030 -1.738221
v 7.668469 -0.033431 -2.186307
v 7.597317 0.092448 -1.941593
v 7.684455 0.312801 -1.717718
v 7.679106 -0.058304 -2.187707
v 7.581912 0.040547 -1.939565
v 7.617140 0.268145 -1.708856
v 7.695144 -0.080032 -2.189819
v 7.578789 -0.013538 -1.939153
v 7.561849 0.209035 -1.701577
v 7.763947 0.454117 -1.492836
v 7.870646 0.466696 -1.506884
v 7.715717 -0.097444 -2.192527
v 7.588116 -0.066891 -1.940381
v 7.521564 0.138658 -1.696273
v 7.662999 0.417058 -1.479546
v 7.739717 -0.109601 -2.195687
v 7.609391 -0.116637 -1.943182
v 7.498456 0.060806 -1.693231
v 7.573246 0.357517 -1.467730
v 7.765850 -0.115848 -2.199127
v 7.641466 -0.160093 -1.947405
v 7.493772 -0.020321 -1.692614
v 7.499525 0.278704 -1.458025
v 7.767728 0.567639 -1.257987
v 7.792706 -0.115848 -2.202663
v 7.682612 -0.194918 -1.952822
v 7.507763 -0.100352 -1.694456
v 7.445812 0.184867 -1.450953
v 7.641543 0.521315 -1.241375
v 7.818840 -0.109601 -2.206104
v 7.730612 -0.219232 -1.959141
v 7.539675 -0.174970 -1.698657
v 7.415001 0.081065 -1.446897
v 7.529351 0.446889 -1.226605
v 7.842839 -0.097444 -2.209263
v 7.782878 -0.231726 -1.966022
v 7.587788 -0.240155 -1.704991
v 7.408755 -0.027105 -1.446075
v 7.437201 0.348372 -1.214473
v 7.863412 -0.080032 -2.211972
v 7.836591 -0.231726 -1.973094
v 7.649508 -0.292391 -1.713117
v 7.427410 -0.133812 -1.448531
v 7.370059 0.231076 -1.205634
v 7.879450 -0.058304 -2.214083
v 7.888856 -0.219232 -1.979975
v 7.721508 -0.328863 -1.722596
v 7.469959 -0.233304 -1.454132
v 7.331546 0.101324 -1.200563
v 7.890088 -0.033431 -2.215483
v 7.936856 -0.194918 -1.986294
v 7.799906 -0.347604 -1.732917
v 7.534110 -0.320217 -1.462578
v 7.323739 -0.033888 -1.199535
v 7.894751 -0.006754 -2.216098
v 7.978003 -0.160093 -1.991711
v 7.880476 -0.347604 -1.743525
v 7.616403 -0.389865 -1.473412
v 7.347056 -0.167272 -1.202605
v 7.893189 0.020289 -2.215892
v 8.010078 -0.116637 -1.995934
v 7.958873 -0.328863 -1.753846
v 7.712403 -0.438494 -1.486051
v 7.400243 -0.291637 -1.209607
v 7.885487 0.046239 -2.214878
v 8.031353 -0.066891 -1.998735
v 8.030873 -0.292391 -1.763325
v 7.816934 -0.463482 -1.499812
v 7.480432 -0.400278 -1.220164
v 7.872059 0.069698 -2.213110
v 8.040680 -0.013538 -1.999963
v 8.092593 -0.240155 -1.771450
v 7.924360 -0.463482 -1.513955
v 7.583298 -0.487338 -1.233707
v 7.853629 0.089401 -2.210684
v 8.037557 0.040547 -1.999552
v 8.140706 -0.174970 -1.777785
v 8.028891 -0.438494 -1.527717
v 7.703298 -0.548124 -1.249505
v 7.831190 0.104287 -2.207730
v 8.022152 0.092448 -1.997523
v 8.172618 -0.100352 -1.781986
v 8.124890 -0.389865 -1.540356
v 7.833961 -0.579359 -1.266707
v 7.805954 0.113551 -2.204407
v 7.995296 0.139367 -1.993988
v 8.186609 -0.020321 -1.783828
v 8.207184 -0.320217 -1.551190
v 7.968244 -0.579359 -1.284386
v 7.958435 0.178773 -1.989135
v 8.181925 0.060806 -1.783211
v 8.271335 -0.233304 -1.559635
v 8.098907 -0.548124 -1.301588
v 7.913558 0.208544 -1.983227
v 8.158816 0.138658 -1.780169
v 8.313884 -0.133812 -1.565237
v 8.218907 -0.487338 -1.317387
v 7.863084 0.227073 -1.976582
v 8.118532 0.209035 -1.774865
v 8.332539 -0.027105 -1.567693
v 8.321774 -0.400278 -1.330929
v 8.063242 0.268145 -1.767586
v 8.326292 0.081065 -1.566871
v 8.401962 -0.291637 -1.341486
v 7.995926 0.312801 -1.758724
v 8.295482 0.184867 -1.562814
v 8.455149 -0.167272 -1.348488
v 7.920216 0.340595 -1.748756
v 8.241769 0.278704 -1.555743
v 8.478467 -0.033888 -1.351558
v 8.168048 0.357517 -1.546037
v 8.470659 0.101324 -1.350530
v 8.078295 0.417058 -1.534221
v 8.432146 0.231076 -1.345460
v 7.977347 0.454117 -1.520931
v 8.365005 0.348372 -1.336621
v 8.272855 0.446889 -1.324489
v 8.160663 0.521315 -1.309718
v 8.034478 0.567639 -1.293106
vn 0.986813 0.120502 0.108072
vn 0.986810 0.120520 0.108075
vn 0.929488 0.354527 0.101797
vn 0.929486 0.354533 0.101798
vn 0.818157 0.567971 0.089604
vn 0.818153 0.567975 0.089604
vn 0.659270 0.748431 0.072202
vn 0.659268 0.748434 0.072202
vn 0.462049 0.885410 0.050603
vn 0.462050 0.885409 0.050603
vn 0.237945 0.970929 0.026059
vn 0.237945 0.970929 0.026059
vn 0.990587 0.120506 0.064926
vn 0.990588 0.120502 0.064926
vn 0.000000 1.000000 0.000000
vn 0.000000 1.000000 -0.000000
vn 0.933044 0.354527 0.061154
vn 0.933044 0.354528 0.061154
vn -0.237947 0.970928 -0.026059
vn -0.237947 0.970928 -0.026059
vn 0.821287 0.567971 0.053829
vn 0.821283 0.567976 0.053830
vn -0.462047 0.885410 -0.050602
vn -0.462046 0.885411 -0.050602
vn 0.661790 0.748434 0.043376
vn 0.661790 0.748434 0.043376
vn -0.659272 0.748430 -0.072202
vn -0.659270 0.748431 -0.072202
vn 0.463814 0.885411 0.030400
vn 0.463817 0.885410 0.030400
vn -0.818154 0.567975 -0.089602
vn -0.818153 0.567976 -0.089602
vn 0.238855 0.970929 0.015656
vn 0.238858 0.970928 0.015655
vn -0.929486 0.354533 -0.101796
vn -0.929488 0.354527 -0.101796
vn 0.992477 0.120502 0.021657
vn 0.992476 0.120506 0.021658
vn 0.000000 1.000000 0.000000
vn 0.000000 1.000000 -0.000000
vn -0.986812 0.120509 -0.108075
vn -0.986812 0.120504 -0.108074
vn 0.934823 0.354528 0.020398
vn 0.934820 0.354537 0.020399
vn -0.238858 0.970928 -0.015656
vn -0.238857 0.970928 -0.015656
vn -0.986812 -0.120509 -0.108074
vn -0.986812 -0.120504 -0.108075
vn 0.822854 0.567969 0.017955
vn 0.822853 0.567971 0.017955
vn -0.463814 0.885411 -0.030400
vn -0.463813 0.885411 -0.030400
vn -0.929488 -0.354527 -0.101797
vn -0.929486 -0.354533 -0.101795
vn 0.663052 0.748434 0.014468
vn 0.663052 0.748434 0.014468
vn -0.661794 0.748430 -0.043376
vn -0.661790 0.748434 -0.043377
vn -0.818154 -0.567975 -0.089602
vn -0.818153 -0.567976 -0.089602
vn 0.464701 0.885410 0.010140
vn 0.464699 0.885411 0.010140
vn -0.821283 0.567976 -0.053830
vn -0.821287 0.567971 -0.053830
vn -0.659270 -0.748431 -0.072201
vn -0.659272 -0.748430 -0.072202
vn 0.239313 0.970928 0.005222
vn 0.239311 0.970929 0.005222
vn -0.933041 0.354535 -0.061155
vn -0.933044 0.354527 -0.061154
vn -0.462046 -0.885411 -0.050602
vn -0.462047 -0.885410 -0.050602
vn 0.992476 0.120506 -0.021657
vn 0.990587 0.120506 -0.064926
vn 0.992477 0.120502 -0.021658
vn 0.000000 1.000000 0.000000
vn 0.000000 1.000000 -0.000000
vn -0.990587 0.120506 -0.064926
vn -0.990587 0.120509 -0.064926
vn -0.237947 -0.970928 -0.026059
vn -0.237947 -0.970928 -0.026059
vn 0.934820 0.354537 -0.020398
vn 0.934823 0.354527 -0.020400
vn -0.239313 0.970929 -0.005222
vn -0.239313 0.970928 -0.005222
vn -0.990587 -0.120506 -0.064926
vn -0.990587 -0.120509 -0.064926
vn -0.000000 -1.000000 0.000000
vn 0.000000 -1.000000 0.000000
vn 0.822854 0.567969 -0.017955
vn 0.822853 0.567971 -0.017955
vn -0.464697 0.885412 -0.010140
vn -0.464699 0.885411 -0.010139
vn -0.933041 -0.354535 -0.061154
vn -0.933044 -0.354527 -0.061156
vn 0.237945 -0.970929 0.026059
vn 0.237945 -0.970929 0.026059
vn 0.663052 0.748434 -0.014468
vn 0.663052 0.748434 -0.014468
vn -0.663052 0.748434 -0.014468
vn -0.663056 0.748430 -0.014467
vn -0.821283 -0.567976 -0.053829
vn -0.821286 -0.567971 -0.053831
vn 0.462050 -0.885409 0.050603
vn 0.462049 -0.885409 0.050603
vn 0.464701 0.885410 -0.010140
vn 0.464699 0.885411 -0.010140
vn -0.822850 0.567975 -0.017955
vn -0.822853 0.567971 -0.017954
vn -0.661790 -0.748434 -0.043376
vn -0.661794 -0.748430 -0.043377
vn 0.659270 -0.748431 0.072203
vn 0.659268 -0.748434 0.072202
vn 0.239311 0.970929 -0.005222
vn 0.239313 0.970928 -0.005222
vn -0.934820 0.354534 -0.020398
vn -0.934822 0.354530 -0.020397
vn -0.463813 -0.885411 -0.030400
vn -0.463814 -0.885411 -0.030400
vn 0.818157 -0.567971 0.089605
vn 0.818154 -0.567975 0.089603
vn 0.986813 0.120502 -0.108072
vn 0.986810 0.120520 -0.108075
vn 0.929486 0.354533 -0.101797
vn 0.990588 0.120502 -0.064926
vn 0.000000 1.000000 0.000000
vn -0.000000 1.000000 0.000000
vn -0.992476 0.120506 -0.021656
vn -0.992476 0.120510 -0.021656
vn -0.238857 -0.970928 -0.015656
vn -0.238858 -0.970928 -0.015656
vn 0.929488 -0.354527 0.101798
vn 0.986813 -0.120502 0.108072
vn 0.929486 -0.354533 0.101796
vn 0.986810 -0.120520 0.108075
vn 0.933044 0.354527 -0.061154
vn 0.929488 0.354527 -0.101798
vn 0.933044 0.354527 -0.061154
vn -0.239313 0.970928 0.005222
vn -0.239313 0.970928 0.005222
vn -0.992476 -0.120506 -0.021656
vn -0.992476 -0.120510 -0.021656
vn 0.000000 -1.000000 0.000000
vn -0.000000 -1.000000 0.000000
vn 0.818157 0.567970 -0.089604
vn 0.818153 0.567976 -0.089604
vn 0.821283 0.567976 -0.053829
vn 0.821286 0.567971 -0.053830
vn -0.464699 0.885411 0.010140
vn -0.464697 0.885412 0.010139
vn -0.934822 -0.354530 -0.020398
vn -0.934820 -0.354535 -0.020397
vn 0.238858 -0.970928 0.015656
vn 0.238855 -0.970929 0.015655
vn 0.659270 0.748431 -0.072202
vn 0.462050 0.885409 -0.050603
vn 0.659268 0.748433 -0.072202
vn 0.661790 0.748434 -0.043376
vn 0.661790 0.748434 -0.043376
vn -0.663056 0.748430 0.014468
vn -0.663052 0.748434 0.014467
vn -0.822850 -0.567975 -0.017954
vn -0.822853 -0.567971 -0.017955
vn 0.463814 -0.885411 0.030400
vn 0.463817 -0.885409 0.030400
vn 0.462049 0.885410 -0.050603
vn 0.463816 0.885410 -0.030400
vn 0.463814 0.885411 -0.030400
vn -0.822853 0.567971 0.017955
vn -0.822850 0.567974 0.017954
vn -0.663056 -0.748430 -0.014468
vn -0.663052 -0.748434 -0.014467
vn 0.661790 -0.748434 0.043376
vn 0.661790 -0.748434 0.043376
vn 0.237945 0.970929 -0.026059
vn 0.237945 0.970929 -0.026059
vn 0.000000 1.000000 0.000000
vn 0.238858 0.970928 -0.015656
vn 0.238855 0.970929 -0.015655
vn -0.934820 0.354534 0.020397
vn -0.934822 0.354530 0.020398
vn -0.464697 -0.885411 -0.010139
vn -0.464699 -0.885411 -0.010140
vn 0.821283 -0.567976 0.053829
vn 0.821286 -0.567971 0.053830
vn -0.238858 0.970928 0.015656
vn -0.237947 0.970928 0.026060
vn 0.000000 1.000000 0.000000
vn -0.000000 1.000000 0.000000
vn 0.000000 1.000000 0.000000
vn -0.992476 0.120506 0.021656
vn -0.992476 0.120510 0.021656
vn -0.239313 -0.970928 -0.005222
vn -0.239313 -0.970928 -0.005222
vn 0.933044 -0.354527 0.061154
vn 0.990588 -0.120502 0.064926
vn 0.990587 -0.120506 0.064926
vn 0.933044 -0.354528 0.061154
vn -0.238857 0.970928 0.015656
vn -0.237947 0.970928 0.026059
vn -0.934822 -0.354530 0.020398
vn -0.992476 -0.120510 0.021656
vn -0.992476 -0.120506 0.021656
vn 0.000000 -1.000000 0.000000
vn -0.000000 -1.000000 0.000000
vn -0.462047 0.885411 0.050602
vn -0.462046 0.885411 0.050602
vn -0.463813 0.885411 0.030400
vn -0.463814 0.885411 0.030400
vn -0.934821 -0.354534 0.020397
vn 0.239313 -0.970928 0.005222
vn 0.239311 -0.970929 0.005222
vn -0.659272 0.748430 0.072202
vn -0.659270 0.748431 0.072202
vn -0.661790 0.748434 0.043376
vn -0.661794 0.748430 0.043377
vn -0.822850 -0.567974 0.017955
vn -0.822853 -0.567971 0.017954
vn -0.663056 -0.748430 0.014468
vn 0.464699 -0.885411 0.010140
vn 0.464701 -0.885410 0.010140
vn -0.818153 0.567976 0.089602
vn -0.821286 0.567971 0.053831
vn -0.821283 0.567976 0.053829
vn -0.818154 0.567976 0.089602
vn -0.933041 0.354534 0.061155
vn -0.663052 -0.748434 0.014467
vn 0.663052 -0.748434 0.014468
vn 0.663052 -0.748434 0.014468
vn -0.929488 0.354527 0.101796
vn -0.933044 0.354527 0.061154
vn -0.929486 0.354533 0.101796
vn -0.464697 -0.885412 0.010140
vn -0.464699 -0.885411 0.010139
vn 0.822854 -0.567969 0.017955
vn 0.822853 -0.567971 0.017955
vn -0.986812 0.120505 0.108074
vn -0.986812 -0.120505 0.108074
vn -0.990587 0.120509 0.064926
vn -0.990587 0.120506 0.064926
vn -0.986812 0.120509 0.108075
vn -0.239313 -0.970928 0.005222
vn -0.239313 -0.970928 0.005222
vn 0.934819 -0.354537 0.020398
vn 0.992477 -0.120502 0.021657
vn 0.992476 -0.120506 0.021658
vn 0.934823 -0.354528 0.020400
vn -0.986812 -0.120509 0.108075
vn -0.990587 -0.120509 0.064926
vn -0.990587 -0.120506 0.064926
vn 0.000000 -1.000000 0.000000
vn 0.000000 -1.000000 0.000000
vn -0.929486 -0.354533 0.101795
vn -0.933044 -0.354527 0.061154
vn -0.929488 -0.354527 0.101797
vn -0.933041 -0.354534 0.061155
vn 0.239311 -0.970929 -0.005222
vn 0.239313 -0.970928 -0.005222
vn -0.818153 -0.567976 0.089602
vn -0.659270 -0.748431 0.072202
vn -0.818154 -0.567975 0.089602
vn -0.821286 -0.567971 0.053830
vn -0.821283 -0.567975 0.053830
vn 0.663052 -0.748434 -0.014468
vn 0.464701 -0.885410 -0.010140
vn 0.464699 -0.885411 -0.010140
vn -0.659272 -0.748430 0.072202
vn -0.661794 -0.748430 0.043376
vn -0.661790 -0.748434 0.043377
vn 0.663052 -0.748434 -0.014468
vn -0.463813 -0.885411 0.030400
vn -0.462047 -0.885411 0.050602
vn -0.237947 -0.970928 0.026059
vn -0.463814 -0.885411 0.030400
vn -0.462046 -0.885411 0.050602
vn 0.822854 -0.567969 -0.017955
vn 0.934820 -0.354537 -0.020398
vn 0.822853 -0.567971 -0.017955
vn 0.000000 -1.000000 0.000000
vn -0.237947 -0.970928 0.026059
vn -0.238858 -0.970928 0.015656
vn -0.238857 -0.970928 0.015656
vn 0.992476 -0.120506 -0.021657
vn 0.992477 -0.120502 -0.021658
vn 0.934823 -0.354528 -0.020400
vn 0.000000 -1.000000 0.000000
vn -0.000000 -1.000000 0.000000
vn 0.000000 -1.000000 0.000000
vn 0.237945 -0.970929 -0.026059
vn 0.238858 -0.970928 -0.015655
vn 0.238855 -0.970929 -0.015656
vn 0.463814 -0.885411 -0.030400
vn 0.237945 -0.970929 -0.026059
vn 0.462050 -0.885409 -0.050603
vn 0.463816 -0.885410 -0.030400
vn 0.462049 -0.885410 -0.050603
vn 0.659270 -0.748431 -0.072203
vn 0.661790 -0.748433 -0.043376
vn 0.661790 -0.748434 -0.043376
vn 0.821286 -0.567971 -0.053830
vn 0.659268 -0.748433 -0.072202
vn 0.818157 -0.567970 -0.089605
vn 0.818153 -0.567976 -0.089603
vn 0.821283 -0.567976 -0.053829
vn 0.990587 -0.120506 -0.064925
vn 0.929486 -0.354533 -0.101797
vn 0.986810 -0.120520 -0.108075
vn 0.990588 -0.120502 -0.064926
vn 0.986813 -0.120502 -0.108072
vn 0.933044 -0.354527 -0.061154
vn 0.929488 -0.354527 -0.101798
vn 0.933044 -0.354527 -0.061154
vn 0.130527 0.000000 -0.991445
vn 0.130527 0.000000 -0.991445
vn 0.130526 -0.000000 -0.991445
vn 0.130528 0.000001 -0.991445
vn 0.130525 -0.000001 -0.991445
vn 0.130526 0.000001 -0.991445
vn 0.130527 0.000000 -0.991445
vn 0.130526 0.000000 -0.991445
vn 0.130524 -0.000001 -0.991445
vn 0.130526 0.000001 -0.991445
vn 0.130526 -0.000001 -0.991445
vn 0.130526 -0.000000 -0.991445
vn 0.130528 0.000001 -0.991445
vn 0.130526 -0.000000 -0.991445
vn 0.130526 0.000000 -0.991445
vn 0.130526 0.000000 -0.991445
vn 0.130526 0.000000 -0.991445
vn 0.130524 -0.000000 -0.991445
vn 0.130526 -0.000000 -0.991445
vn 0.130526 -0.000000 -0.991445
vn 0.130526 0.000001 -0.991445
vn 0.130527 0.000000 -0.991445
vn 0.130525 0.000000 -0.991445
vn 0.130527 -0.000001 -0.991445
vn 0.130526 0.000001 -0.991445
vn 0.130531 -0.000002 -0.991444
vn 0.130525 -0.000000 -0.991445
vn 0.130526 -0.000001 -0.991445
vn 0.130527 -0.000001 -0.991445
vn 0.130526 -0.000000 -0.991445
vn 0.130525 0.000001 -0.991445
vn 0.130528 -0.000001 -0.991445
vn 0.130526 -0.000000 -0.991445
vn 0.130527 -0.000001 -0.991445
vn 0.130527 -0.000001 -0.991445
vn 0.130525 0.000001 -0.991445
vn 0.130524 0.000001 -0.991445
vn 0.130525 0.000002 -0.991445
vn 0.130526 0.000000 -0.991445
vn 0.130526 -0.000002 -0.991445
vn 0.130526 0.000001 -0.991445
vn 0.130527 -0.000000 -0.991445
vn 0.130528 -0.000000 -0.991445
vn 0.130526 -0.000000 -0.991445
vn 0.130526 0.000002 -0.991445
vn 0.130524 -0.000000 -0.991445
vn 0.130526 0.000000 -0.991445
vn 0.130526 -0.000000 -0.991445
vn 0.130526 -0.000002 -0.991445
vn 0.130526 -0.000000 -0.991445
vn 0.130525 -0.000000 -0.991445
vn 0.130526 -0.000000 -0.991445
vn 0.130525 -0.000000 -0.991445
vn 0.130526 0.000000 -0.991445
vn 0.130526 -0.000001 -0.991445
vn 0.130530 0.000002 -0.991444
vn 0.130527 0.000000 -0.991445
vn 0.130527 0.000002 -0.991445
vn 0.130526 0.000001 -0.991445
vn 0.130525 -0.000001 -0.991445
vn 0.130527 0.000000 -0.991445
vn 0.130525 -0.000002 -0.991445
vn 0.130527 0.000000 -0.991445
vn 0.130527 0.000001 0.991445
vn 0.130526 0.000000 0.991445
vn 0.130525 -0.000001 0.991445
vn 0.130526 0.000000 0.991445
vn 0.130526 -0.000000 0.991445
vn 0.130527 0.000001 0.991445
vn 0.130526 -0.000000 0.991445
vn 0.130526 0.000000 0.991445
vn 0.130527 0.000000 0.991445
vn 0.130526 -0.000001 0.991445
vn 0.130527 0.000001 0.991445
vn 0.130526 0.000000 0.991445
vn 0.130525 -0.000000 0.991445
vn 0.130526 -0.000002 0.991445
vn 0.130526 0.000000 0.991445
vn 0.130527 0.000000 0.991445
vn 0.130526 0.000000 0.991445
vn 0.130526 0.000000 0.991445
vn 0.130526 0.000002 0.991445
vn 0.130526 0.000000 0.991445
vn 0.130526 -0.000000 0.991445
vn 0.130526 0.000000 0.991445
vn 0.130526 0.000000 0.991445
vn 0.130527 -0.000001 0.991445
vn 0.130526 0.000000 0.991445
vn 0.130528 -0.000001 0.991445
vn 0.130527 -0.000000 0.991445
vn 0.130526 0.000000 0.991445
vn 0.130526 0.000000 0.991445
vn 0.130526 0.000000 0.991445
vn 0.130526 -0.000000 0.991445
vn 0.130527 -0.000000 0.991445
vn 0.130526 -0.000000 0.991445
vn 0.130526 -0.000000 0.991445
vn 0.130525 0.000001 0.991445
vn 0.130526 0.000000 0.991445
vn 0.130527 -0.000000 0.991445
vn 0.130526 0.000000 0.991445
vn 0.130526 0.000000 0.991445
vn 0.130526 0.000001 0.991445
vn 0.130526 -0.000000 0.991445
vn 0.130526 0.000000 0.991445
vn 0.130525 0.000000 0.991445
vn 0.130527 -0.000002 0.991445
vn 0.130526 -0.000000 0.991445
vn 0.130526 -0.000000 0.991445
vn 0.130526 -0.000000 0.991445
vn 0.130526 0.000002 0.991445
vn 0.130526 -0.000000 0.991445
vn 0.130526 -0.000000 0.991445
vn 0.130527 -0.000000 0.991445
vn 0.130526 0.000001 0.991445
vn 0.130525 -0.000000 0.991445
vn 0.130526 -0.000001 0.991445
vn 0.130526 -0.000001 0.991445
vn 0.130528 0.000001 0.991445
vn 0.130526 0.000000 0.991445
vn 0.130525 -0.000001 0.991445
vn 0.130526 0.000000 0.991445
vn 0.130526 0.000000 0.991445
vn 0.130526 0.000000 0.991445
vn 0.130526 -0.000000 0.991445
vn 0.130526 0.000000 0.991445
vn 0.017053 -0.891847 0.452016
vn -0.133462 -0.891847 0.432200
vn 0.166942 -0.869084 0.465643
vn 0.042883 -0.883874 0.465756
vn 0.308980 -0.817860 0.485425
vn 0.241324 -0.834812 0.494825
vn 0.437425 -0.740259 0.510565
vn 0.557037 -0.647117 0.520528
vn 0.426304 -0.744566 0.513699
vn 0.658672 -0.534142 0.529947
vn 0.581327 -0.610059 0.538412
vn 0.045031 -0.889579 0.454556
vn 0.045030 -0.889579 0.454556
vn 0.736050 -0.403695 0.543379
vn 0.787662 -0.261454 0.557881
vn 0.703291 -0.444387 0.554889
vn 0.245648 -0.841622 0.480968
vn 0.245648 -0.841622 0.480968
vn 0.824788 -0.113972 0.553836
vn 0.787835 -0.255741 0.560279
vn 0.429892 -0.748292 0.505225
vn 0.429894 -0.748292 0.505224
vn 0.832294 0.038115 0.553022
vn 0.819481 -0.051660 0.570773
vn 0.587829 -0.614623 0.526018
vn 0.587834 -0.614620 0.526016
vn 0.045030 -0.889579 0.454556
vn 0.045031 -0.889579 0.454556
vn 0.809855 0.188667 0.555464
vn 0.764631 0.333550 0.551438
vn 0.808908 0.154470 0.567280
vn 0.710953 -0.447816 0.542224
vn 0.710951 -0.447818 0.542225
vn 0.245648 -0.841622 0.480968
vn 0.245649 -0.841621 0.480968
vn 0.700612 0.470788 0.536192
vn 0.751028 0.352619 0.558227
vn 0.792612 -0.256873 0.552976
vn 0.792612 -0.256873 0.552976
vn 0.429894 -0.748292 0.505224
vn 0.429890 -0.748294 0.505224
vn 0.610650 0.593117 0.524708
vn 0.646533 0.530482 0.548256
vn 0.828415 -0.052076 0.557689
vn 0.828414 -0.052077 0.557690
vn 0.587832 -0.614622 0.526016
vn 0.587830 -0.614624 0.526017
vn 0.045032 -0.889579 0.454556
vn 0.045030 -0.889579 0.454556
vn 0.498379 0.695602 0.517451
vn 0.375243 0.782178 0.497383
vn 0.508300 0.682319 0.525425
vn 0.816426 0.155527 0.556111
vn 0.816426 0.155527 0.556111
vn 0.710955 -0.447811 0.542226
vn 0.710951 -0.447815 0.542227
vn 0.245649 -0.841622 0.480968
vn 0.245645 -0.841622 0.480968
vn 0.239310 0.846928 0.474810
vn 0.335972 0.794661 0.505606
vn 0.757295 0.354743 0.548326
vn 0.757295 0.354742 0.548327
vn 0.792612 -0.256873 0.552976
vn 0.792608 -0.256879 0.552978
vn 0.429890 -0.748294 0.505224
vn 0.429892 -0.748293 0.505223
vn 0.092604 0.884106 0.458019
vn -0.058940 0.892241 0.447697
vn 0.143304 0.864650 0.481501
vn 0.654208 0.534834 0.534756
vn 0.654207 0.534837 0.534755
vn 0.828414 -0.052074 0.557690
vn 0.828414 -0.052077 0.557691
vn 0.587831 -0.614622 0.526018
vn 0.587832 -0.614621 0.526017
vn 0.045033 -0.889579 0.454556
vn 0.045033 -0.889579 0.454557
vn 0.045032 -0.889579 0.454556
vn -0.207993 0.884106 0.418445
vn -0.058941 0.892241 0.447697
vn 0.512721 0.686096 0.516129
vn 0.512721 0.686097 0.516129
vn 0.340464 0.800369 0.493450
vn 0.816424 0.155527 0.556114
vn 0.816425 0.155532 0.556112
vn 0.710955 -0.447811 0.542226
vn 0.710952 -0.447814 0.542227
vn 0.245649 -0.841621 0.480968
vn 0.245649 -0.841621 0.480967
vn 0.245645 -0.841623 0.480968
vn -0.354046 0.846928 0.396693
vn -0.263042 0.864651 0.428005
vn 0.340465 0.800369 0.493450
vn 0.757294 0.354742 0.548329
vn 0.654206 0.534836 0.534757
vn 0.757294 0.354741 0.548329
vn 0.792608 -0.256879 0.552978
vn 0.792614 -0.256866 0.552976
vn 0.429891 -0.748293 0.505224
vn 0.429891 -0.748293 0.505224
vn 0.429891 -0.748293 0.505224
vn -0.491187 0.782179 0.383316
vn -0.615325 0.695601 0.370830
vn -0.455385 0.794661 0.401421
vn 0.146724 0.871493 0.467944
vn 0.146725 0.871493 0.467944
vn 0.654208 0.534835 0.534756
vn 0.828412 -0.052080 0.557693
vn 0.828413 -0.052074 0.557692
vn 0.587829 -0.614624 0.526017
vn 0.587829 -0.614624 0.526017
vn 0.587832 -0.614622 0.526017
vn -0.725646 0.593118 0.348782
vn -0.626971 0.682318 0.375964
vn -0.058057 0.895635 0.440985
vn -0.058057 0.895635 0.440984
vn 0.512723 0.686094 0.516130
vn 0.512721 0.686096 0.516128
vn 0.816426 0.155533 0.556111
vn 0.816426 0.155520 0.556113
vn 0.710952 -0.447814 0.542227
vn 0.710954 -0.447812 0.542226
vn 0.710954 -0.447811 0.542227
vn -0.815517 0.470787 0.336589
vn -0.766401 0.530483 0.362240
vn -0.262837 0.871493 0.414024
vn -0.456578 0.800369 0.388518
vn -0.262837 0.871493 0.414025
vn 0.340463 0.800370 0.493450
vn 0.340465 0.800369 0.493451
vn 0.654208 0.534835 0.534755
vn 0.757295 0.354744 0.548326
vn 0.757295 0.354742 0.548326
vn 0.792614 -0.256866 0.552977
vn 0.792613 -0.256869 0.552977
vn 0.792613 -0.256869 0.552977
vn -0.881300 0.333549 0.334745
vn -0.926025 0.188668 0.326928
vn -0.869916 0.352621 0.344825
vn -0.456578 0.800369 0.388518
vn 0.146724 0.871493 0.467944
vn -0.058057 0.895635 0.440984
vn 0.146725 0.871493 0.467945
vn 0.654207 0.534837 0.534755
vn 0.828414 -0.052077 0.557690
vn 0.828414 -0.052080 0.557690
vn 0.828414 -0.052077 0.557690
vn -0.947067 0.038119 0.318764
vn -0.928169 0.154467 0.338588
vn -0.628835 0.686096 0.365840
vn -0.628834 0.686096 0.365840
vn -0.058059 0.895635 0.440984
vn 0.512723 0.686094 0.516129
vn 0.340463 0.800370 0.493451
vn 0.512722 0.686096 0.516129
vn 0.816427 0.155521 0.556112
vn 0.816427 0.155520 0.556112
vn 0.816427 0.155521 0.556112
vn -0.940028 -0.113969 0.321495
vn -0.939285 -0.051659 0.339227
vn -0.770319 0.534838 0.347213
vn -0.770321 0.534836 0.347212
vn -0.262837 0.871493 0.414025
vn -0.262836 0.871493 0.414025
vn 0.340466 0.800368 0.493450
vn 0.757294 0.354742 0.548328
vn 0.757294 0.354744 0.548327
vn 0.757295 0.354742 0.548328
vn -0.905212 -0.261457 0.335009
vn -0.851608 -0.403694 0.334358
vn -0.906001 -0.255738 0.337283
vn -0.873407 0.354744 0.333642
vn -0.873409 0.354741 0.333640
vn -0.456578 0.800369 0.388518
vn -0.456578 0.800369 0.388518
vn 0.146723 0.871494 0.467944
vn 0.146725 0.871493 0.467944
vn 0.654202 0.534842 0.534755
vn 0.654202 0.534842 0.534755
vn 0.654206 0.534837 0.534756
vn -0.822943 -0.444388 0.353956
vn -0.773390 -0.534140 0.341413
vn -0.932539 0.155524 0.325857
vn -0.932539 0.155524 0.325857
vn -0.628833 0.686097 0.365840
vn -0.628834 0.686097 0.365840
vn -0.262836 0.871494 0.414024
vn -0.058057 0.895635 0.440984
vn -0.058059 0.895635 0.440984
vn 0.512722 0.686095 0.516129
vn 0.512725 0.686092 0.516130
vn 0.512726 0.686093 0.516129
vn -0.700867 -0.610062 0.369608
vn -0.672777 -0.647118 0.358621
vn -0.554665 -0.740258 0.379954
vn -0.944527 -0.052076 0.324278
vn -0.944527 -0.052074 0.324278
vn -0.770319 0.534838 0.347214
vn -0.770321 0.534836 0.347213
vn -0.262837 0.871493 0.414024
vn 0.340466 0.800368 0.493451
vn 0.340470 0.800366 0.493452
vn 0.340470 0.800366 0.493452
vn -0.424088 -0.817860 0.388915
vn -0.544734 -0.744565 0.385860
vn -0.827063 -0.447818 0.339743
vn -0.908725 -0.256870 0.328992
vn -0.908725 -0.256872 0.328991
vn -0.873409 0.354740 0.333642
vn -0.873409 0.354740 0.333642
vn -0.932539 0.155524 0.325857
vn -0.456578 0.800369 0.388518
vn -0.456578 0.800369 0.388518
vn 0.146723 0.871493 0.467945
vn -0.058057 0.895635 0.440985
vn 0.146719 0.871494 0.467943
vn 0.146719 0.871494 0.467944
vn -0.281771 -0.869084 0.406569
vn -0.161970 -0.883873 0.438787
vn -0.361170 -0.834812 0.415506
vn -0.827063 -0.447818 0.339743
vn -0.932539 0.155527 0.325856
vn -0.628836 0.686096 0.365839
vn -0.628833 0.686097 0.365840
vn -0.058057 0.895635 0.440985
vn -0.058057 0.895635 0.440984
vn -0.703944 -0.614622 0.355952
vn -0.703945 -0.614622 0.355952
vn -0.944527 -0.052075 0.324278
vn -0.944527 -0.052074 0.324278
vn -0.770320 0.534836 0.347214
vn -0.770323 0.534832 0.347212
vn -0.873408 0.354740 0.333642
vn -0.262837 0.871493 0.414025
vn -0.262837 0.871493 0.414025
vn -0.262837 0.871493 0.414025
vn -0.546007 -0.748291 0.376745
vn -0.546007 -0.748291 0.376745
vn -0.908725 -0.256874 0.328991
vn -0.908725 -0.256872 0.328992
vn -0.873406 0.354749 0.333640
vn -0.456576 0.800370 0.388518
vn -0.628835 0.686095 0.365840
vn -0.456577 0.800369 0.388519
vn -0.456576 0.800369 0.388519
vn -0.361761 -0.841622 0.401001
vn -0.161145 -0.889579 0.427412
vn -0.161145 -0.889579 0.427412
vn -0.361760 -0.841622 0.401001
vn -0.827065 -0.447815 0.339743
vn -0.827063 -0.447819 0.339742
vn -0.932540 0.155522 0.325855
vn -0.932539 0.155527 0.325857
vn -0.628835 0.686096 0.365840
vn -0.628835 0.686096 0.365840
vn -0.703945 -0.614623 0.355950
vn -0.703945 -0.614622 0.355951
vn -0.944527 -0.052078 0.324278
vn -0.944527 -0.052075 0.324279
vn -0.873405 0.354749 0.333641
vn -0.770315 0.534842 0.347215
vn -0.770316 0.534842 0.347214
vn -0.770324 0.534832 0.347212
vn -0.546006 -0.748292 0.376744
vn -0.546007 -0.748291 0.376744
vn -0.908726 -0.256866 0.328993
vn -0.908725 -0.256874 0.328991
vn -0.873410 0.354738 0.333642
vn -0.873410 0.354738 0.333642
vn -0.361761 -0.841622 0.401001
vn -0.161145 -0.889579 0.427413
vn -0.361759 -0.841622 0.401001
vn -0.161144 -0.889579 0.427413
vn -0.827063 -0.447819 0.339742
vn -0.827065 -0.447815 0.339743
vn -0.703945 -0.614622 0.355952
vn -0.932540 0.155521 0.325857
vn -0.932540 0.155521 0.325857
vn -0.932540 0.155521 0.325857
vn -0.703945 -0.614622 0.355952
vn -0.944527 -0.052078 0.324278
vn -0.908727 -0.256866 0.328992
vn -0.944527 -0.052077 0.324278
vn -0.944527 -0.052077 0.324278
vn -0.546004 -0.748293 0.376745
vn -0.546006 -0.748291 0.376745
vn -0.908727 -0.256865 0.328991
vn -0.908727 -0.256865 0.328992
vn -0.361764 -0.841621 0.401001
vn -0.161142 -0.889579 0.427413
vn -0.361760 -0.841623 0.401001
vn -0.161144 -0.889579 0.427412
vn -0.827063 -0.447819 0.339743
vn -0.827064 -0.447818 0.339743
vn -0.827063 -0.447818 0.339743
vn -0.703943 -0.614624 0.355952
vn -0.703945 -0.614622 0.355952
vn -0.703943 -0.614624 0.355952
vn -0.546004 -0.748293 0.376745
vn -0.546008 -0.748291 0.376745
vn -0.546008 -0.748291 0.376745
vn -0.161147 -0.889579 0.427412
vn -0.161147 -0.889579 0.427413
vn -0.361764 -0.841621 0.401001
vn -0.161143 -0.889579 0.427413
vn -0.361758 -0.841623 0.401002
vn -0.361758 -0.841623 0.401001
vn -0.133463 0.891847 -0.432200
vn 0.017053 0.891847 -0.452016
vn -0.161147 0.889579 -0.427412
vn -0.361761 0.841622 -0.401001
vn -0.546002 0.748294 -0.376745
vn -0.703943 0.614624 -0.355952
vn -0.161144 0.889579 -0.427412
vn -0.161147 0.889579 -0.427413
vn -0.827065 0.447815 -0.339743
vn -0.361763 0.841621 -0.401001
vn -0.361761 0.841622 -0.401001
vn -0.908727 0.256865 -0.328991
vn -0.546002 0.748294 -0.376745
vn -0.546003 0.748294 -0.376745
vn -0.944527 0.052080 -0.324278
vn -0.703943 0.614624 -0.355951
vn -0.703947 0.614620 -0.355951
vn -0.161144 0.889579 -0.427412
vn -0.161144 0.889579 -0.427412
vn -0.932540 -0.155521 -0.325857
vn -0.827062 0.447822 -0.339742
vn -0.827065 0.447815 -0.339743
vn -0.361763 0.841621 -0.401001
vn -0.361762 0.841622 -0.401000
vn -0.873409 -0.354740 -0.333642
vn -0.908727 0.256864 -0.328992
vn -0.908727 0.256865 -0.328991
vn -0.546005 0.748293 -0.376744
vn -0.546003 0.748294 -0.376744
vn -0.770314 -0.534845 -0.347214
vn -0.944527 0.052080 -0.324278
vn -0.944527 0.052078 -0.324278
vn -0.703943 0.614624 -0.355951
vn -0.703946 0.614620 -0.355952
vn -0.161144 0.889579 -0.427413
vn -0.161144 0.889579 -0.427413
vn -0.628840 -0.686092 -0.365839
vn -0.932540 -0.155521 -0.325857
vn -0.932540 -0.155521 -0.325856
vn -0.827065 0.447815 -0.339743
vn -0.827062 0.447822 -0.339742
vn -0.361761 0.841622 -0.401001
vn -0.361762 0.841621 -0.401001
vn -0.456573 -0.800371 -0.388519
vn -0.873406 -0.354747 -0.333642
vn -0.873409 -0.354741 -0.333640
vn -0.908725 0.256875 -0.328991
vn -0.908727 0.256864 -0.328993
vn -0.546007 0.748291 -0.376745
vn -0.546005 0.748292 -0.376745
vn -0.262841 -0.871492 -0.414024
vn -0.770320 -0.534838 -0.347212
vn -0.628840 -0.686092 -0.365840
vn -0.770314 -0.534845 -0.347214
vn -0.944527 0.052078 -0.324278
vn -0.944527 0.052073 -0.324279
vn -0.703945 0.614622 -0.355952
vn -0.703943 0.614624 -0.355951
vn -0.281770 0.869084 -0.406569
vn -0.161144 0.889579 -0.427412
vn -0.161144 0.889579 -0.427412
vn -0.161969 0.883873 -0.438787
vn -0.058057 -0.895635 -0.440984
vn -0.628838 -0.686093 -0.365839
vn -0.932541 -0.155521 -0.325855
vn -0.932539 -0.155526 -0.325856
vn -0.827065 0.447815 -0.339743
vn -0.827064 0.447818 -0.339742
vn -0.424088 0.817860 -0.388915
vn -0.361761 0.841622 -0.401001
vn -0.361761 0.841622 -0.401000
vn -0.361170 0.834812 -0.415506
vn 0.146723 -0.871493 -0.467944
vn -0.456573 -0.800371 -0.388520
vn -0.456578 -0.800369 -0.388518
vn -0.873409 -0.354741 -0.333640
vn -0.873405 -0.354747 -0.333642
vn -0.908725 0.256872 -0.328992
vn -0.908724 0.256875 -0.328991
vn -0.554665 0.740258 -0.379954
vn -0.672779 0.647116 -0.358620
vn -0.546006 0.748292 -0.376744
vn -0.546007 0.748291 -0.376745
vn -0.544733 0.744565 -0.385861
vn 0.340470 -0.800366 -0.493451
vn -0.262836 -0.871493 -0.414025
vn -0.262841 -0.871492 -0.414024
vn -0.770321 -0.534835 -0.347213
vn -0.770319 -0.534837 -0.347214
vn -0.944527 0.052073 -0.324278
vn -0.944527 0.052075 -0.324278
vn -0.773388 0.534143 -0.341412
vn -0.700867 0.610062 -0.369607
vn -0.703945 0.614622 -0.355952
vn -0.703945 0.614622 -0.355952
vn 0.512722 -0.686096 -0.516129
vn -0.058057 -0.895635 -0.440984
vn -0.058057 -0.895635 -0.440984
vn -0.628839 -0.686093 -0.365838
vn -0.628833 -0.686097 -0.365841
vn -0.932539 -0.155525 -0.325856
vn -0.932539 -0.155526 -0.325857
vn -0.851607 0.403695 -0.334358
vn -0.905212 0.261457 -0.335009
vn -0.827063 0.447818 -0.339743
vn -0.822943 0.444388 -0.353956
vn -0.827063 0.447818 -0.339743
vn 0.654202 -0.534842 -0.534755
vn 0.146725 -0.871493 -0.467944
vn 0.146723 -0.871494 -0.467944
vn -0.456578 -0.800369 -0.388518
vn -0.456579 -0.800368 -0.388517
vn -0.262836 -0.871494 -0.414024
vn -0.873408 -0.354741 -0.333642
vn -0.873408 -0.354741 -0.333642
vn -0.940028 0.113969 -0.321495
vn -0.944527 0.052075 -0.324278
vn -0.906001 0.255738 -0.337283
vn -0.908725 0.256870 -0.328992
vn -0.908725 0.256872 -0.328991
vn 0.757297 -0.354737 -0.548328
vn 0.340470 -0.800366 -0.493452
vn 0.340464 -0.800369 -0.493450
vn -0.262837 -0.871493 -0.414024
vn -0.770321 -0.534836 -0.347213
vn -0.770319 -0.534837 -0.347214
vn -0.947067 -0.038119 -0.318764
vn -0.944527 0.052076 -0.324278
vn -0.939285 0.051659 -0.339227
vn 0.816426 -0.155525 -0.556112
vn 0.512722 -0.686095 -0.516129
vn 0.512721 -0.686096 -0.516129
vn -0.058057 -0.895635 -0.440984
vn -0.058057 -0.895635 -0.440984
vn -0.628833 -0.686098 -0.365841
vn -0.628834 -0.686097 -0.365840
vn -0.932539 -0.155524 -0.325857
vn -0.926025 -0.188668 -0.326928
vn -0.881300 -0.333549 -0.334745
vn -0.932539 -0.155525 -0.325857
vn -0.928169 -0.154467 -0.338589
vn 0.828414 0.052082 -0.557690
vn 0.654203 -0.534842 -0.534755
vn 0.654205 -0.534838 -0.534756
vn 0.146725 -0.871493 -0.467944
vn 0.146725 -0.871493 -0.467944
vn -0.456579 -0.800368 -0.388518
vn -0.456578 -0.800369 -0.388518
vn -0.815517 -0.470787 -0.336589
vn -0.873409 -0.354741 -0.333640
vn -0.869916 -0.352621 -0.344825
vn -0.873407 -0.354744 -0.333642
vn 0.792614 0.256864 -0.552977
vn 0.757295 -0.354741 -0.548327
vn 0.757297 -0.354737 -0.548328
vn 0.340464 -0.800369 -0.493451
vn 0.340463 -0.800370 -0.493450
vn -0.262837 -0.871493 -0.414024
vn -0.262837 -0.871493 -0.414025
vn -0.766401 -0.530483 -0.362240
vn -0.725646 -0.593118 -0.348782
vn -0.770321 -0.534836 -0.347212
vn -0.770319 -0.534838 -0.347213
vn 0.710951 0.447816 -0.542226
vn 0.828414 0.052082 -0.557690
vn 0.816426 -0.155522 -0.556112
vn 0.816426 -0.155526 -0.556112
vn 0.654206 -0.534838 -0.534755
vn 0.512722 -0.686095 -0.516129
vn 0.512722 -0.686096 -0.516128
vn 0.146725 -0.871493 -0.467944
vn -0.058056 -0.895635 -0.440984
vn -0.058057 -0.895635 -0.440984
vn -0.615325 -0.695601 -0.370830
vn -0.491187 -0.782179 -0.383316
vn -0.628835 -0.686096 -0.365840
vn -0.626971 -0.682318 -0.375964
vn -0.628834 -0.686096 -0.365840
vn 0.587829 0.614624 -0.526017
vn 0.828414 0.052078 -0.557690
vn 0.654208 -0.534836 -0.534755
vn 0.146724 -0.871493 -0.467944
vn -0.456578 -0.800369 -0.388518
vn -0.354046 -0.846928 -0.396693
vn -0.456578 -0.800369 -0.388518
vn -0.455385 -0.794661 -0.401421
vn 0.429891 0.748293 -0.505224
vn 0.792614 0.256864 -0.552977
vn 0.710952 0.447815 -0.542226
vn 0.792613 0.256866 -0.552977
vn 0.757296 -0.354741 -0.548326
vn 0.816427 -0.155522 -0.556111
vn 0.757296 -0.354741 -0.548326
vn 0.340465 -0.800368 -0.493451
vn 0.340463 -0.800370 -0.493450
vn -0.207993 -0.884106 -0.418445
vn -0.058940 -0.892241 -0.447697
vn -0.262837 -0.871493 -0.414024
vn -0.262837 -0.871493 -0.414025
vn -0.263042 -0.864651 -0.428004
vn 0.045033 0.889579 -0.454556
vn 0.245649 0.841621 -0.480968
vn 0.710952 0.447814 -0.542226
vn 0.816425 -0.155531 -0.556113
vn 0.512721 -0.686097 -0.516128
vn 0.512722 -0.686095 -0.516129
vn 0.092604 -0.884106 -0.458019
vn -0.058056 -0.895635 -0.440985
vn -0.058940 -0.892241 -0.447697
vn -0.058057 -0.895635 -0.440985
vn 0.587829 0.614624 -0.526017
vn 0.429891 0.748293 -0.505224
vn 0.587829 0.614624 -0.526017
vn 0.828413 0.052073 -0.557691
vn 0.828412 0.052078 -0.557692
vn 0.654207 -0.534835 -0.534757
vn 0.654206 -0.534837 -0.534756
vn 0.239310 -0.846928 -0.474810
vn 0.146724 -0.871493 -0.467944
vn 0.143303 -0.864651 -0.481501
vn 0.146724 -0.871493 -0.467944
vn 0.429893 0.748291 -0.505225
vn 0.792609 0.256879 -0.552978
vn 0.792614 0.256866 -0.552976
vn 0.816424 -0.155531 -0.556113
vn 0.757294 -0.354741 -0.548329
vn 0.757294 -0.354741 -0.548329
vn 0.340464 -0.800369 -0.493451
vn 0.335972 -0.794660 -0.505606
vn 0.375242 -0.782178 -0.497384
vn 0.498379 -0.695602 -0.517452
vn 0.340465 -0.800368 -0.493451
vn 0.245646 0.841622 -0.480968
vn 0.045031 0.889579 -0.454556
vn 0.045033 0.889579 -0.454556
vn 0.245649 0.841621 -0.480968
vn 0.710952 0.447815 -0.542226
vn 0.710954 0.447812 -0.542226
vn 0.816425 -0.155529 -0.556113
vn 0.654206 -0.534837 -0.534756
vn 0.512720 -0.686097 -0.516129
vn 0.610651 -0.593117 -0.524708
vn 0.512720 -0.686097 -0.516129
vn 0.508299 -0.682320 -0.525425
vn 0.587832 0.614622 -0.526017
vn 0.429893 0.748291 -0.505225
vn 0.587829 0.614624 -0.526018
vn 0.828413 0.052078 -0.557691
vn 0.828414 0.052073 -0.557690
vn 0.646533 -0.530481 -0.548256
vn 0.654209 -0.534835 -0.534755
vn 0.700611 -0.470789 -0.536192
vn 0.245646 0.841622 -0.480967
vn 0.429891 0.748294 -0.505224
vn 0.792612 0.256872 -0.552976
vn 0.792609 0.256879 -0.552978
vn 0.764635 -0.333544 -0.551437
vn 0.757295 -0.354741 -0.548326
vn 0.809855 -0.188674 -0.555461
vn 0.751028 -0.352618 -0.558227
vn 0.757296 -0.354741 -0.548327
vn 0.045031 0.889579 -0.454556
vn 0.245648 0.841622 -0.480968
vn 0.045031 0.889579 -0.454556
vn 0.710951 0.447815 -0.542227
vn 0.710954 0.447812 -0.542226
vn 0.828415 0.052079 -0.557689
vn 0.816426 -0.155529 -0.556110
vn 0.832294 -0.038115 -0.553022
vn 0.816426 -0.155527 -0.556111
vn 0.808908 -0.154470 -0.567280
vn 0.429891 0.748294 -0.505223
vn 0.587830 0.614624 -0.526017
vn 0.587832 0.614622 -0.526016
vn 0.828414 0.052076 -0.557690
vn 0.824788 0.113972 -0.553836
vn 0.792612 0.256872 -0.552976
vn 0.819481 0.051659 -0.570773
vn 0.429893 0.748291 -0.505225
vn 0.792612 0.256873 -0.552976
vn 0.787662 0.261454 -0.557881
vn 0.736051 0.403694 -0.543379
vn 0.787835 0.255741 -0.560279
vn 0.245648 0.841622 -0.480968
vn 0.045031 0.889579 -0.454556
vn 0.245648 0.841622 -0.480968
vn 0.045031 0.889579 -0.454556
vn 0.703291 0.444388 -0.554889
vn 0.658671 0.534143 -0.529947
vn 0.710953 0.447816 -0.542224
vn 0.710951 0.447818 -0.542225
vn 0.557037 0.647117 -0.520528
vn 0.437425 0.740259 -0.510564
vn 0.581327 0.610059 -0.538411
vn 0.429893 0.748291 -0.505225
vn 0.587829 0.614623 -0.526018
vn 0.587835 0.614620 -0.526016
vn 0.308980 0.817859 -0.485425
vn 0.426303 0.744566 -0.513699
vn 0.429891 0.748293 -0.505224
vn 0.166941 0.869084 -0.465643
vn 0.042883 0.883874 -0.465756
vn 0.045030 0.889579 -0.454556
vn 0.245648 0.841622 -0.480968
vn 0.241324 0.834812 -0.494825
vn 0.045031 0.889579 -0.454556
vn 0.245648 0.841622 -0.480968
f 1//1 205//1 2//1
f 1//2 201//2 205//2
f 3//3 201//3 1//3
f 3//4 4//4 201//4
f 5//5 6//5 4//5
f 5//6 4//6 3//6
f 7//7 8//7 6//7
f 7//8 6//8 5//8
f 9//9 8//9 7//9
f 9//10 10//10 8//10
f 11//11 12//11 10//11
f 11//12 10//12 9//12
f 13//13 2//13 14//13
f 13//14 1//14 2//14
f 15//15 12//15 11//15
f 15//16 16//16 12//16
f 17//17 3//17 1//17
f 17//18 1//18 13//18
f 18//19 19//19 16//19
f 18//20 16//20 15//20
f 20//21 3//21 17//21
f 20//22 5//22 3//22
f 21//23 22//23 19//23
f 21//24 19//24 18//24
f 23//25 7//25 5//25
f 23//26 5//26 20//26
f 24//27 22//27 21//27
f 24//28 172//28 22//28
f 25//29 7//29 23//29
f 25//30 9//30 7//30
f 26//31 172//31 24//31
f 26//32 27//32 172//32
f 28//33 11//33 9//33
f 28//34 9//34 25//34
f 29//35 30//35 27//35
f 29//36 27//36 26//36
f 31//37 14//37 32//37
f 31//38 13//38 14//38
f 33//39 11//39 28//39
f 33//40 15//40 11//40
f 34//41 30//41 29//41
f 34//42 181//42 30//42
f 35//43 17//43 13//43
f 35//44 13//44 31//44
f 36//45 15//45 33//45
f 36//46 18//46 15//46
f 37//47 181//47 34//47
f 37//48 38//48 181//48
f 39//49 17//49 35//49
f 39//50 20//50 17//50
f 40//51 18//51 36//51
f 40//52 21//52 18//52
f 41//53 38//53 37//53
f 41//54 188//54 38//54
f 42//55 23//55 20//55
f 42//56 20//56 39//56
f 43//57 24//57 21//57
f 43//58 21//58 40//58
f 44//59 188//59 41//59
f 44//60 45//60 188//60
f 46//61 23//61 42//61
f 46//62 25//62 23//62
f 47//63 26//63 24//63
f 47//64 24//64 43//64
f 48//65 193//65 45//65
f 48//66 45//66 44//66
f 49//67 28//67 25//67
f 49//68 25//68 46//68
f 50//69 26//69 47//69
f 50//70 29//70 26//70
f 51//71 193//71 48//71
f 51//72 197//72 193//72
f 52//73 32//73 53//73
f 52//74 53//74 54//74
f 52//75 31//75 32//75
f 55//76 28//76 49//76
f 55//77 33//77 28//77
f 56//78 29//78 50//78
f 56//79 34//79 29//79
f 57//80 203//80 197//80
f 57//81 197//81 51//81
f 58//82 35//82 31//82
f 58//83 31//83 52//83
f 59//84 33//84 55//84
f 59//85 36//85 33//85
f 60//86 34//86 56//86
f 60//87 37//87 34//87
f 61//88 203//88 57//88
f 61//89 206//89 203//89
f 62//90 39//90 35//90
f 62//91 35//91 58//91
f 63//92 36//92 59//92
f 63//93 40//93 36//93
f 64//94 37//94 60//94
f 64//95 41//95 37//95
f 65//96 206//96 61//96
f 65//97 66//97 206//97
f 67//98 39//98 62//98
f 67//99 42//99 39//99
f 68//100 43//100 40//100
f 68//101 40//101 63//101
f 69//102 44//102 41//102
f 69//103 41//103 64//103
f 70//104 71//104 66//104
f 70//105 66//105 65//105
f 72//106 46//106 42//106
f 72//107 42//107 67//107
f 73//108 43//108 68//108
f 73//109 47//109 43//109
f 74//110 44//110 69//110
f 74//111 48//111 44//111
f 75//112 217//112 71//112
f 75//113 71//113 70//113
f 76//114 49//114 46//114
f 76//115 46//115 72//115
f 77//116 50//116 47//116
f 77//117 47//117 73//117
f 78//118 51//118 48//118
f 78//119 48//119 74//119
f 79//120 214//120 217//120
f 79//121 217//121 75//121
f 80//122 54//122 81//122
f 80//123 81//123 82//123
f 80//124 82//124 83//124
f 80//125 52//125 54//125
f 84//126 55//126 49//126
f 84//127 49//127 76//127
f 85//128 56//128 50//128
f 85//129 50//129 77//129
f 86//130 57//130 51//130
f 86//131 51//131 78//131
f 87//132 214//132 79//132
f 87//133 2//133 205//133
f 87//134 209//134 214//134
f 87//135 205//135 209//135
f 88//136 52//136 80//136
f 88//137 80//137 83//137
f 88//138 58//138 52//138
f 89//139 59//139 55//139
f 89//140 55//140 84//140
f 90//141 60//141 56//141
f 90//142 56//142 85//142
f 91//143 61//143 57//143
f 91//144 57//144 86//144
f 92//145 83//145 93//145
f 92//146 88//146 83//146
f 92//147 58//147 88//147
f 92//148 62//148 58//148
f 94//149 59//149 89//149
f 94//150 63//150 59//150
f 95//151 60//151 90//151
f 95//152 64//152 60//152
f 96//153 61//153 91//153
f 96//154 65//154 61//154
f 97//155 93//155 98//155
f 97//156 98//156 99//156
f 97//157 92//157 93//157
f 97//158 62//158 92//158
f 97//159 67//159 62//159
f 100//160 68//160 63//160
f 100//161 63//161 94//161
f 101//162 64//162 95//162
f 101//163 69//163 64//163
f 102//164 65//164 96//164
f 102//165 70//165 65//165
f 103//166 97//166 99//166
f 103//167 67//167 97//167
f 103//168 72//168 67//168
f 104//169 68//169 100//169
f 104//170 73//170 68//170
f 105//171 69//171 101//171
f 105//172 74//172 69//172
f 106//173 70//173 102//173
f 106//174 75//174 70//174
f 107//175 103//175 99//175
f 107//176 99//176 108//176
f 107//177 108//177 109//177
f 107//178 76//178 72//178
f 107//179 72//179 103//179
f 110//180 73//180 104//180
f 110//181 77//181 73//181
f 111//182 74//182 105//182
f 111//183 78//183 74//183
f 112//184 79//184 75//184
f 112//185 75//185 106//185
f 113//186 89//186 84//186
f 113//187 109//187 114//187
f 113//188 107//188 109//188
f 113//189 76//189 107//189
f 113//190 84//190 76//190
f 115//191 77//191 110//191
f 115//192 85//192 77//192
f 116//193 78//193 111//193
f 116//194 86//194 78//194
f 117//195 87//195 79//195
f 117//196 2//196 87//196
f 117//197 14//197 2//197
f 117//198 79//198 112//198
f 118//199 89//199 113//199
f 118//200 113//200 114//200
f 119//201 95//201 90//201
f 119//202 90//202 85//202
f 119//203 85//203 115//203
f 120//204 91//204 86//204
f 120//205 86//205 116//205
f 121//206 114//206 122//206
f 121//207 118//207 114//207
f 121//208 89//208 118//208
f 121//209 94//209 89//209
f 123//210 95//210 119//210
f 124//211 96//211 91//211
f 124//212 91//212 120//212
f 125//213 121//213 122//213
f 125//214 122//214 126//214
f 125//215 100//215 94//215
f 125//216 94//216 121//216
f 127//217 101//217 95//217
f 127//218 95//218 123//218
f 127//219 105//219 101//219
f 128//220 102//220 96//220
f 128//221 96//221 124//221
f 129//222 126//222 130//222
f 129//223 104//223 100//223
f 129//224 100//224 125//224
f 129//225 125//225 126//225
f 129//226 110//226 104//226
f 131//227 105//227 127//227
f 132//228 102//228 128//228
f 132//229 106//229 102//229
f 133//230 129//230 130//230
f 133//231 110//231 129//231
f 133//232 130//232 134//232
f 135//233 111//233 105//233
f 135//234 105//234 131//234
f 136//235 106//235 132//235
f 136//236 112//236 106//236
f 137//237 134//237 138//237
f 137//238 138//238 139//238
f 137//239 110//239 133//239
f 137//240 115//240 110//240
f 137//241 133//241 134//241
f 140//242 116//242 111//242
f 140//243 111//243 135//243
f 141//244 112//244 136//244
f 141//245 32//245 14//245
f 141//246 14//246 117//246
f 141//247 117//247 112//247
f 142//248 137//248 139//248
f 142//249 115//249 137//249
f 142//250 119//250 115//250
f 143//251 116//251 140//251
f 143//252 120//252 116//252
f 144//253 139//253 145//253
f 144//254 119//254 142//254
f 144//255 142//255 139//255
f 144//256 123//256 119//256
f 146//257 124//257 120//257
f 146//258 120//258 143//258
f 147//259 145//259 148//259
f 147//260 148//260 149//260
f 147//261 144//261 145//261
f 147//262 127//262 123//262
f 147//263 123//263 144//263
f 150//264 132//264 128//264
f 150//265 128//265 124//265
f 150//266 124//266 146//266
f 151//267 147//267 149//267
f 151//268 127//268 147//268
f 151//269 131//269 127//269
f 152//270 132//270 150//270
f 153//271 131//271 151//271
f 153//272 149//272 154//272
f 153//273 154//273 155//273
f 153//274 135//274 131//274
f 153//275 151//275 149//275
f 156//276 136//276 132//276
f 156//277 141//277 136//277
f 156//278 132//278 152//278
f 157//279 143//279 140//279
f 157//280 153//280 155//280
f 157//281 140//281 135//281
f 157//282 135//282 153//282
f 158//283 53//283 32//283
f 158//284 32//284 141//284
f 158//285 141//285 156//285
f 159//286 155//286 160//286
f 159//287 157//287 155//287
f 159//288 143//288 157//288
f 161//289 160//289 162//289
f 161//290 146//290 143//290
f 161//291 143//291 159//291
f 161//292 150//292 146//292
f 161//293 159//293 160//293
f 163//294 162//294 164//294
f 163//295 150//295 161//295
f 163//296 161//296 162//296
f 165//297 164//297 166//297
f 165//298 150//298 163//298
f 165//299 152//299 150//299
f 165//300 156//300 152//300
f 165//301 163//301 164//301
f 167//302 166//302 168//302
f 167//303 165//303 166//303
f 167//304 156//304 165//304
f 169//305 53//305 158//305
f 169//306 168//306 170//306
f 169//307 170//307 81//307
f 169//308 54//308 53//308
f 169//309 81//309 54//309
f 169//310 158//310 156//310
f 169//311 167//311 168//311
f 169//312 156//312 167//312
f 171//313 172//313 173//313
f 174//314 22//314 175//314
f 175//315 22//315 171//315
f 171//316 22//316 172//316
f 173//317 27//317 176//317
f 176//318 27//318 177//318
f 172//319 27//319 173//319
f 178//320 19//320 174//320
f 174//321 19//321 22//321
f 177//322 30//322 179//322
f 27//323 30//323 177//323
f 180//324 16//324 178//324
f 178//325 16//325 19//325
f 179//326 181//326 182//326
f 30//327 181//327 179//327
f 183//328 12//328 184//328
f 184//329 12//329 180//329
f 180//330 12//330 16//330
f 181//331 38//331 182//331
f 182//332 38//332 185//332
f 185//333 38//333 186//333
f 187//334 10//334 183//334
f 183//335 10//335 12//335
f 186//336 188//336 189//336
f 38//337 188//337 186//337
f 187//338 8//338 10//338
f 190//339 8//339 187//339
f 188//340 45//340 189//340
f 189//341 45//341 191//341
f 190//342 192//342 8//342
f 192//343 6//343 8//343
f 193//344 194//344 45//344
f 45//345 194//345 191//345
f 192//346 195//346 6//346
f 6//347 195//347 4//347
f 193//348 196//348 194//348
f 197//349 196//349 193//349
f 195//350 198//350 4//350
f 197//351 199//351 196//351
f 198//352 200//352 4//352
f 4//353 200//353 201//353
f 197//354 202//354 199//354
f 203//355 202//355 197//355
f 200//356 204//356 201//356
f 201//357 204//357 205//357
f 206//358 207//358 203//358
f 203//359 207//359 202//359
f 204//360 208//360 205//360
f 205//361 208//361 209//361
f 206//362 210//362 207//362
f 66//363 210//363 206//363
f 208//364 211//364 209//364
f 66//365 212//365 210//365
f 211//366 213//366 209//366
f 209//367 213//367 214//367
f 71//368 215//368 66//368
f 66//369 215//369 212//369
f 214//370 216//370 217//370
f 213//371 216//371 214//371
f 217//372 218//372 71//372
f 71//373 218//373 215//373
f 216//374 219//374 217//374
f 217//375 219//375 218//375
f 166//376 220//376 221//376
f 164//377 222//377 223//377
f 164//378 223//378 220//378
f 164//379 220//379 166//379
f 168//380 221//380 224//380
f 168//381 224//381 225//381
f 168//382 166//382 221//382
f 162//383 226//383 222//383
f 162//384 222//384 164//384
f 170//385 225//385 227//385
f 170//386 168//386 225//386
f 160//387 228//387 226//387
f 160//388 226//388 162//388
f 81//389 170//389 227//389
f 81//390 227//390 229//390
f 155//391 230//391 231//391
f 155//392 231//392 228//392
f 155//393 228//393 160//393
f 82//394 81//394 229//394
f 82//395 229//395 232//395
f 82//396 232//396 233//396
f 154//397 234//397 230//397
f 154//398 230//398 155//398
f 83//399 82//399 233//399
f 83//400 233//400 235//400
f 149//401 234//401 154//401
f 149//402 236//402 234//402
f 93//403 83//403 235//403
f 93//404 235//404 237//404
f 238//405 236//405 149//405
f 148//406 238//406 149//406
f 239//407 93//407 237//407
f 239//408 98//408 93//408
f 240//409 238//409 148//409
f 240//410 148//410 145//410
f 241//411 98//411 239//411
f 241//412 99//412 98//412
f 242//413 240//413 145//413
f 243//414 99//414 241//414
f 244//415 145//415 139//415
f 244//416 242//416 145//416
f 245//417 99//417 243//417
f 245//418 108//418 99//418
f 246//419 139//419 138//419
f 246//420 244//420 139//420
f 247//421 108//421 245//421
f 247//422 109//422 108//422
f 248//423 138//423 134//423
f 248//424 246//424 138//424
f 249//425 114//425 109//425
f 249//426 109//426 247//426
f 250//427 248//427 134//427
f 251//428 114//428 249//428
f 252//429 134//429 130//429
f 252//430 250//430 134//430
f 253//431 122//431 114//431
f 253//432 114//432 251//432
f 254//433 130//433 126//433
f 254//434 252//434 130//434
f 255//435 126//435 122//435
f 255//436 122//436 253//436
f 256//437 254//437 126//437
f 256//438 126//438 255//438
f 257//439 207//439 210//439
f 257//440 202//440 207//440
f 258//441 210//441 212//441
f 258//442 257//442 210//442
f 259//443 212//443 215//443
f 259//444 258//444 212//444
f 260//445 215//445 218//445
f 260//446 218//446 219//446
f 260//447 259//447 215//447
f 261//448 219//448 216//448
f 261//449 260//449 219//449
f 262//450 263//450 257//450
f 262//451 257//451 258//451
f 264//452 216//452 213//452
f 264//453 213//453 211//453
f 264//454 261//454 216//454
f 265//455 258//455 259//455
f 265//456 262//456 258//456
f 266//457 211//457 208//457
f 266//458 264//458 211//458
f 267//459 259//459 260//459
f 267//460 265//460 259//460
f 268//461 208//461 204//461
f 268//462 266//462 208//462
f 269//463 267//463 260//463
f 269//464 260//464 261//464
f 270//465 271//465 263//465
f 270//466 263//466 262//466
f 272//467 204//467 200//467
f 272//468 200//468 198//468
f 272//469 268//469 204//469
f 273//470 269//470 261//470
f 273//471 261//471 264//471
f 274//472 262//472 265//472
f 274//473 270//473 262//473
f 275//474 198//474 195//474
f 275//475 272//475 198//475
f 276//476 264//476 266//476
f 276//477 273//477 264//477
f 277//478 265//478 267//478
f 277//479 274//479 265//479
f 278//480 195//480 192//480
f 278//481 275//481 195//481
f 279//482 266//482 268//482
f 279//483 276//483 266//483
f 280//484 277//484 267//484
f 280//485 267//485 269//485
f 281//486 282//486 271//486
f 281//487 271//487 270//487
f 283//488 192//488 190//488
f 283//489 190//489 187//489
f 283//490 278//490 192//490
f 284//491 268//491 272//491
f 284//492 279//492 268//492
f 285//493 280//493 269//493
f 285//494 269//494 273//494
f 286//495 270//495 274//495
f 286//496 281//496 270//496
f 287//497 187//497 183//497
f 287//498 283//498 187//498
f 288//499 284//499 272//499
f 288//500 272//500 275//500
f 289//501 273//501 276//501
f 289//502 285//502 273//502
f 290//503 274//503 277//503
f 290//504 286//504 274//504
f 291//505 183//505 184//505
f 291//506 184//506 180//506
f 291//507 287//507 183//507
f 292//508 275//508 278//508
f 292//509 288//509 275//509
f 293//510 289//510 276//510
f 293//511 276//511 279//511
f 294//512 277//512 280//512
f 294//513 290//513 277//513
f 295//514 296//514 282//514
f 295//515 297//515 296//515
f 295//516 282//516 281//516
f 298//517 180//517 178//517
f 298//518 291//518 180//518
f 299//519 292//519 278//519
f 299//520 278//520 283//520
f 299//521 283//521 287//521
f 300//522 279//522 284//522
f 300//523 293//523 279//523
f 301//524 280//524 285//524
f 301//525 294//525 280//525
f 302//526 297//526 295//526
f 302//527 295//527 281//527
f 302//528 281//528 286//528
f 303//529 178//529 174//529
f 303//530 298//530 178//530
f 304//531 299//531 287//531
f 305//532 284//532 288//532
f 305//533 288//533 292//533
f 305//534 300//534 284//534
f 306//535 285//535 289//535
f 306//536 301//536 285//536
f 307//537 302//537 286//537
f 307//538 286//538 290//538
f 307//539 297//539 302//539
f 308//540 174//540 175//540
f 308//541 175//541 171//541
f 308//542 303//542 174//542
f 309//543 304//543 287//543
f 309//544 287//544 291//544
f 310//545 305//545 292//545
f 311//546 306//546 289//546
f 311//547 289//547 293//547
f 312//548 297//548 307//548
f 312//549 307//549 290//549
f 312//550 290//550 294//550
f 313//551 171//551 173//551
f 313//552 308//552 171//552
f 314//553 291//553 298//553
f 314//554 309//554 291//554
f 315//555 310//555 292//555
f 315//556 292//556 299//556
f 316//557 293//557 300//557
f 316//558 311//558 293//558
f 317//559 294//559 301//559
f 317//560 312//560 294//560
f 317//561 297//561 312//561
f 318//562 173//562 176//562
f 318//563 313//563 173//563
f 319//564 298//564 303//564
f 319//565 303//565 308//565
f 319//566 314//566 298//566
f 320//567 315//567 299//567
f 320//568 299//568 304//568
f 321//569 305//569 310//569
f 321//570 316//570 300//570
f 321//571 300//571 305//571
f 322//572 301//572 306//572
f 322//573 297//573 317//573
f 322//574 317//574 301//574
f 323//575 176//575 177//575
f 323//576 177//576 179//576
f 323//577 318//577 176//577
f 324//578 319//578 308//578
f 325//579 304//579 309//579
f 325//580 309//580 314//580
f 325//581 320//581 304//581
f 326//582 321//582 310//582
f 327//583 297//583 322//583
f 327//584 306//584 311//584
f 327//585 322//585 306//585
f 328//586 179//586 182//586
f 328//587 323//587 179//587
f 329//588 308//588 313//588
f 329//589 324//589 308//589
f 330//590 325//590 314//590
f 331//591 310//591 315//591
f 331//592 315//592 320//592
f 331//593 326//593 310//593
f 332//594 311//594 316//594
f 332//595 327//595 311//595
f 332//596 297//596 327//596
f 333//597 182//597 185//597
f 333//598 328//598 182//598
f 334//599 329//599 313//599
f 334//600 313//600 318//600
f 335//601 314//601 319//601
f 335//602 330//602 314//602
f 336//603 331//603 320//603
f 337//604 332//604 316//604
f 337//605 316//605 321//605
f 337//606 297//606 332//606
f 338//607 185//607 186//607
f 338//608 186//608 189//608
f 338//609 333//609 185//609
f 339//610 318//610 323//610
f 339//611 334//611 318//611
f 340//612 319//612 324//612
f 340//613 335//613 319//613
f 341//614 336//614 320//614
f 341//615 320//615 325//615
f 342//616 337//616 321//616
f 342//617 297//617 337//617
f 342//618 321//618 326//618
f 343//619 338//619 189//619
f 343//620 189//620 191//620
f 344//621 323//621 328//621
f 344//622 339//622 323//622
f 345//623 340//623 324//623
f 345//624 324//624 329//624
f 346//625 330//625 335//625
f 346//626 341//626 325//626
f 346//627 325//627 330//627
f 347//628 326//628 331//628
f 347//629 342//629 326//629
f 347//630 297//630 342//630
f 348//631 343//631 191//631
f 348//632 191//632 194//632
f 348//633 194//633 196//633
f 349//634 328//634 333//634
f 349//635 344//635 328//635
f 350//636 329//636 334//636
f 350//637 345//637 329//637
f 351//638 346//638 335//638
f 352//639 331//639 336//639
f 352//640 297//640 347//640
f 352//641 347//641 331//641
f 353//642 196//642 199//642
f 353//643 348//643 196//643
f 354//644 338//644 343//644
f 354//645 333//645 338//645
f 354//646 349//646 333//646
f 355//647 350//647 334//647
f 355//648 334//648 339//648
f 355//649 339//649 344//649
f 356//650 335//650 340//650
f 356//651 351//651 335//651
f 357//652 336//652 341//652
f 357//653 341//653 346//653
f 357//654 352//654 336//654
f 357//655 297//655 352//655
f 358//656 199//656 202//656
f 358//657 202//657 257//657
f 358//658 353//658 199//658
f 359//659 354//659 343//659
f 360//660 355//660 344//660
f 361//661 356//661 340//661
f 361//662 340//662 345//662
f 362//663 357//663 346//663
f 362//664 297//664 357//664
f 363//665 343//665 348//665
f 363//666 359//666 343//666
f 364//667 360//667 344//667
f 364//668 344//668 349//668
f 365//669 345//669 350//669
f 365//670 361//670 345//670
f 365//671 350//671 355//671
f 366//672 346//672 351//672
f 366//673 297//673 362//673
f 366//674 362//674 346//674
f 367//675 348//675 353//675
f 367//676 363//676 348//676
f 368//677 364//677 349//677
f 368//678 349//678 354//678
f 369//679 365//679 355//679
f 370//680 297//680 366//680
f 370//681 356//681 361//681
f 370//682 351//682 356//682
f 370//683 366//683 351//683
f 371//684 367//684 353//684
f 371//685 257//685 263//685
f 371//686 358//686 257//686
f 371//687 353//687 358//687
f 372//688 368//688 354//688
f 372//689 354//689 359//689
f 373//690 369//690 355//690
f 373//691 355//691 360//691
f 374//692 370//692 361//692
f 374//693 297//693 370//693
f 375//694 372//694 359//694
f 375//695 359//695 363//695
f 376//696 373//696 360//696
f 376//697 360//697 364//697
f 377//698 365//698 369//698
f 377//699 374//699 361//699
f 377//700 297//700 374//700
f 377//701 361//701 365//701
f 378//702 375//702 363//702
f 378//703 363//703 367//703
f 379//704 376//704 364//704
f 379//705 364//705 368//705
f 380//706 377//706 369//706
f 380//707 297//707 377//707
f 381//708 367//708 371//708
f 381//709 371//709 263//709
f 381//710 378//710 367//710
f 381//711 263//711 271//711
f 382//712 379//712 368//712
f 382//713 368//713 372//713
f 382//714 372//714 375//714
f 383//715 369//715 373//715
f 383//716 380//716 369//716
f 383//717 297//717 380//717
f 384//718 382//718 375//718
f 385//719 373//719 376//719
f 385//720 376//720 379//720
f 385//721 383//721 373//721
f 385//722 297//722 383//722
f 386//723 384//723 375//723
f 386//724 375//724 378//724
f 387//725 385//725 379//725
f 387//726 297//726 385//726
f 388//727 386//727 378//727
f 388//728 271//728 282//728
f 388//729 378//729 381//729
f 388//730 381//730 271//730
f 389//731 379//731 382//731
f 389//732 387//732 379//732
f 389//733 297//733 387//733
f 390//734 297//734 389//734
f 390//735 382//735 384//735
f 390//736 389//736 382//736
f 391//737 384//737 386//737
f 391//738 390//738 384//738
f 391//739 297//739 390//739
f 392//740 282//740 296//740
f 392//741 296//741 297//741
f 392//742 386//742 388//742
f 392//743 388//743 282//743
f 392//744 297//744 391//744
f 392//745 391//745 386//745
f 249//746 247//746 393//746
f 247//747 245//747 393//747
f 394//748 395//748 396//748
f 397//749 394//749 396//749
f 398//750 397//750 396//750
f 399//751 398//751 396//751
f 400//752 401//752 395//752
f 400//753 395//753 394//753
f 402//754 399//754 396//754
f 403//755 400//755 394//755
f 403//756 394//756 397//756
f 404//757 402//757 396//757
f 405//758 397//758 398//758
f 405//759 403//759 397//759
f 406//760 404//760 396//760
f 407//761 398//761 399//761
f 407//762 405//762 398//762
f 408//763 409//763 401//763
f 408//764 401//764 400//764
f 410//765 406//765 396//765
f 411//766 407//766 399//766
f 411//767 399//767 402//767
f 412//768 400//768 403//768
f 412//769 408//769 400//769
f 413//770 410//770 396//770
f 414//771 411//771 402//771
f 414//772 402//772 404//772
f 415//773 412//773 403//773
f 415//774 403//774 405//774
f 416//775 413//775 396//775
f 417//776 404//776 406//776
f 417//777 414//777 404//777
f 418//778 415//778 405//778
f 418//779 405//779 407//779
f 419//780 420//780 409//780
f 419//781 409//781 408//781
f 421//782 416//782 396//782
f 422//783 406//783 410//783
f 422//784 417//784 406//784
f 423//785 418//785 407//785
f 423//786 407//786 411//786
f 424//787 419//787 408//787
f 424//788 408//788 412//788
f 425//789 421//789 396//789
f 426//790 422//790 410//790
f 426//791 410//791 413//791
f 427//792 423//792 411//792
f 427//793 411//793 414//793
f 428//794 424//794 412//794
f 428//795 412//795 415//795
f 429//796 425//796 396//796
f 430//797 426//797 413//797
f 430//798 416//798 421//798
f 430//799 413//799 416//799
f 431//800 414//800 417//800
f 431//801 427//801 414//801
f 432//802 428//802 415//802
f 432//803 415//803 418//803
f 433//804 251//804 249//804
f 433//805 420//805 419//805
f 433//806 393//806 420//806
f 433//807 249//807 393//807
f 434//808 429//808 396//808
f 435//809 430//809 421//809
f 436//810 417//810 422//810
f 436//811 431//811 417//811
f 437//812 418//812 423//812
f 437//813 432//813 418//813
f 438//814 253//814 251//814
f 438//815 419//815 424//815
f 438//816 433//816 419//816
f 438//817 251//817 433//817
f 439//818 434//818 396//818
f 440//819 421//819 425//819
f 440//820 435//820 421//820
f 441//821 436//821 422//821
f 441//822 422//822 426//822
f 442//823 437//823 423//823
f 442//824 423//824 427//824
f 443//825 255//825 253//825
f 443//826 256//826 255//826
f 443//827 438//827 424//827
f 443//828 424//828 428//828
f 443//829 253//829 438//829
f 444//830 439//830 396//830
f 445//831 440//831 425//831
f 445//832 425//832 429//832
f 446//833 441//833 426//833
f 446//834 426//834 430//834
f 447//835 427//835 431//835
f 447//836 442//836 427//836
f 448//837 254//837 256//837
f 448//838 256//838 443//838
f 448//839 443//839 428//839
f 448//840 428//840 432//840
f 449//841 444//841 396//841
f 450//842 445//842 429//842
f 450//843 429//843 434//843
f 451//844 430//844 435//844
f 451//845 446//845 430//845
f 452//846 447//846 431//846
f 452//847 431//847 436//847
f 453//848 252//848 254//848
f 453//849 250//849 252//849
f 453//850 432//850 437//850
f 453//851 254//851 448//851
f 453//852 448//852 432//852
f 454//853 449//853 396//853
f 455//854 450//854 434//854
f 455//855 434//855 439//855
f 456//856 435//856 440//856
f 456//857 451//857 435//857
f 456//858 440//858 445//858
f 457//859 452//859 436//859
f 457//860 436//860 441//860
f 458//861 248//861 250//861
f 458//862 442//862 447//862
f 458//863 250//863 453//863
f 458//864 453//864 437//864
f 458//865 437//865 442//865
f 459//866 454//866 396//866
f 460//867 439//867 444//867
f 460//868 455//868 439//868
f 461//869 456//869 445//869
f 462//870 441//870 446//870
f 462//871 457//871 441//871
f 463//872 246//872 248//872
f 463//873 458//873 447//873
f 463//874 248//874 458//874
f 464//875 459//875 396//875
f 465//876 444//876 449//876
f 465//877 460//877 444//877
f 466//878 445//878 450//878
f 466//879 461//879 445//879
f 467//880 446//880 451//880
f 467//881 462//881 446//881
f 468//882 463//882 447//882
f 468//883 244//883 246//883
f 468//884 242//884 244//884
f 468//885 447//885 452//885
f 468//886 246//886 463//886
f 469//887 464//887 396//887
f 470//888 449//888 454//888
f 470//889 465//889 449//889
f 471//890 450//890 455//890
f 471//891 466//891 450//891
f 472//892 451//892 456//892
f 472//893 467//893 451//893
f 473//894 240//894 242//894
f 473//895 452//895 457//895
f 473//896 242//896 468//896
f 473//897 468//897 452//897
f 474//898 469//898 396//898
f 475//899 470//899 454//899
f 475//900 454//900 459//900
f 476//901 455//901 460//901
f 476//902 471//902 455//902
f 477//903 472//903 456//903
f 477//904 456//904 461//904
f 478//905 240//905 473//905
f 478//906 238//906 240//906
f 478//907 473//907 457//907
f 478//908 457//908 462//908
f 479//909 474//909 396//909
f 480//910 464//910 469//910
f 480//911 475//911 459//911
f 480//912 459//912 464//912
f 481//913 465//913 470//913
f 481//914 476//914 460//914
f 481//915 460//915 465//915
f 482//916 466//916 471//916
f 482//917 477//917 461//917
f 482//918 461//918 466//918
f 483//919 236//919 238//919
f 483//920 234//920 236//920
f 483//921 478//921 462//921
f 483//922 238//922 478//922
f 483//923 462//923 467//923
f 484//924 479//924 396//924
f 485//925 480//925 469//925
f 486//926 481//926 470//926
f 487//927 482//927 471//927
f 488//928 467//928 472//928
f 488//929 230//929 234//929
f 488//930 483//930 467//930
f 488//931 234//931 483//931
f 489//932 484//932 396//932
f 490//933 469//933 474//933
f 490//934 474//934 479//934
f 490//935 485//935 469//935
f 491//936 470//936 475//936
f 491//937 475//937 480//937
f 491//938 486//938 470//938
f 492//939 487//939 471//939
f 492//940 471//940 476//940
f 493//941 231//941 230//941
f 493//942 228//942 231//942
f 493//943 488//943 472//943
f 493//944 472//944 477//944
f 493//945 230//945 488//945
f 494//946 396//946 395//946
f 494//947 489//947 396//947
f 495//948 490//948 479//948
f 496//949 491//949 480//949
f 497//950 492//950 476//950
f 497//951 476//951 481//951
f 498//952 226//952 228//952
f 498//953 477//953 482//953
f 498//954 228//954 493//954
f 498//955 493//955 477//955
f 499//956 479//956 484//956
f 499//957 484//957 489//957
f 499//958 495//958 479//958
f 500//959 496//959 480//959
f 500//960 480//960 485//960
f 501//961 481//961 486//961
f 501//962 497//962 481//962
f 502//963 222//963 226//963
f 502//964 482//964 487//964
f 502//965 226//965 498//965
f 502//966 498//966 482//966
f 503//967 499//967 489//967
f 504//968 500//968 485//968
f 504//969 485//969 490//969
f 505//970 491//970 496//970
f 505//971 501//971 486//971
f 505//972 486//972 491//972
f 506//973 502//973 487//973
f 506//974 222//974 502//974
f 506//975 223//975 222//975
f 506//976 220//976 223//976
f 506//977 487//977 492//977
f 507//978 503//978 489//978
f 507//979 395//979 401//979
f 507//980 494//980 395//980
f 507//981 489//981 494//981
f 508//982 490//982 495//982
f 508//983 504//983 490//983
f 509//984 505//984 496//984
f 510//985 497//985 501//985
f 510//986 506//986 492//986
f 510//987 221//987 220//987
f 510//988 492//988 497//988
f 510//989 220//989 506//989
f 511//990 508//990 495//990
f 511//991 499//991 503//991
f 511//992 495//992 499//992
f 512//993 509//993 496//993
f 512//994 496//994 500//994
f 513//995 221//995 510//995
f 513//996 510//996 501//996
f 513//997 224//997 221//997
f 514//998 503//998 507//998
f 514//999 511//999 503//999
f 515//1000 512//1000 500//1000
f 515//1001 500//1001 504//1001
f 516//1002 225//1002 224//1002
f 516//1003 513//1003 501//1003
f 516//1004 227//1004 225//1004
f 516//1005 224//1005 513//1005
f 516//1006 501//1006 505//1006
f 517//1007 507//1007 401//1007
f 517//1008 514//1008 507//1008
f 517//1009 401//1009 409//1009
f 518//1010 515//1010 504//1010
f 518//1011 504//1011 508//1011
f 519//1012 509//1012 512//1012
f 519//1013 505//1013 509//1013
f 519//1014 229//1014 227//1014
f 519//1015 516//1015 505//1015
f 519//1016 227//1016 516//1016
f 520//1017 511//1017 514//1017
f 520//1018 518//1018 508//1018
f 520//1019 508//1019 511//1019
f 521//1020 519//1020 512//1020
f 521//1021 232//1021 229//1021
f 521//1022 512//1022 515//1022
f 521//1023 229//1023 519//1023
f 522//1024 520//1024 514//1024
f 523//1025 521//1025 515//1025
f 523//1026 233//1026 232//1026
f 523//1027 235//1027 233//1027
f 523//1028 232//1028 521//1028
f 524//1029 522//1029 514//1029
f 524//1030 409//1030 420//1030
f 524//1031 514//1031 517//1031
f 524//1032 517//1032 409//1032
f 525//1033 235//1033 523//1033
f 525//1034 237//1034 235//1034
f 525//1035 515//1035 518//1035
f 525//1036 523//1036 515//1036
f 526//1037 239//1037 237//1037
f 526//1038 241//1038 239//1038
f 526//1039 237//1039 525//1039
f 526//1040 520//1040 522//1040
f 526//1041 518//1041 520//1041
f 526//1042 525//1042 518//1042
f 527//1043 243//1043 241//1043
f 527//1044 241//1044 526//1044
f 527//1045 526//1045 522//1045
f 528//1046 245//1046 243//1046
f 528//1047 393//1047 245//1047
f 528//1048 420//1048 393//1048
f 528//1049 522//1049 524//1049
f 528//1050 243//1050 527//1050
f 528//1051 524//1051 420//1051
f 528//1052 527//1052 522//1052
